<svg style="display:none" xmlns="http://www.w3.org/2000/svg">

  <symbol id="add1" viewBox="0 0 16 16">
    <path
      d="M16 8A8 8 0 1 1 0 8a8 8 0 0 1 16 0M8.5 4.5a.5.5 0 0 0-1 0v3h-3a.5.5 0 0 0 0 1h3v3a.5.5 0 0 0 1 0v-3h3a.5.5 0 0 0 0-1h-3z"/>
  </symbol>
  <symbol id="add2" viewBox="0 0 16 16">
    <line x1="8" y1="2" x2="8" y2="14" stroke="currentColor" stroke-width="1.5" stroke-linecap="round"/>
    <line x1="2" y1="8" x2="14" y2="8" stroke="currentColor" stroke-width="1.5" stroke-linecap="round"/>
  </symbol>

  <symbol id="alert-success" viewBox="0 0 24 24">
    <g fill="none">
      <path
        stroke="currentColor"
        stroke-width="1.5"
        stroke-linecap="round"
        stroke-linejoin="round"
        d="M8.5 12.5L10.5 14.5L15.5 9.5"
      />
      <path
        stroke="currentColor"
        stroke-width="2"
        stroke-linecap="round"
        opacity="0.5"
        d="M7 3.33782C8.47087 2.48697 10.1786 2 12 2C17.5228 2 22 6.47715 22 12C22 17.5228 17.5228 22 12 22C6.47715 22 2 17.5228 2 12C2 10.1786 2.48697 8.47087 3.33782 7"
      />
    </g>
  </symbol>
  <symbol id="alert-info" viewBox="0 0 24 24">
    <g fill="none">
      <path
        stroke="currentColor"
        stroke-width="1.5"
        stroke-linecap="round"
        d="M12 17V11"
      />
      <circle cx="1" cy="1" r="1" transform="matrix(1 0 0 -1 11 9)" fill="currentColor"/>
      <path
        stroke="currentColor"
        stroke-width="2"
        stroke-linecap="round"
        opacity="0.5"
        d="M7 3.33782C8.47087 2.48697 10.1786 2 12 2C17.5228 2 22 6.47715 22 12C22 17.5228 17.5228 22 12 22C6.47715 22 2 17.5228 2 12C2 10.1786 2.48697 8.47087 3.33782 7"
      />
    </g>
  </symbol>
  <symbol id="alert-warning" viewBox="0 0 24 24">
    <g fill="none">
      <path
        stroke="currentColor"
        stroke-width="1.5"
        stroke-linecap="round"
        d="M12 7V13"
      />
      <circle cx="12" cy="16" r="1" fill="currentColor"/>
      <path
        d="M7 3.33782C8.47087 2.48697 10.1786 2 12 2C17.5228 2 22 6.47715 22 12C22 17.5228 17.5228 22 12 22C6.47715 22 2 17.5228 2 12C2 10.1786 2.48697 8.47087 3.33782 7"
        stroke="currentColor"
        stroke-width="2"
        opacity="0.5"
        stroke-linecap="round"
      />
    </g>
  </symbol>
  <symbol id="alert-question" viewBox="0 0 24 24">
    <g fill="none">
      <path
        d="M9.5 9.5C9.5 8.12 10.62 7 12 7C13.38 7 14.5 8.12 14.5 9.5C14.5 10.5 13.9 11.1 13.1 11.7C12.3 12.3 11.5 12.9 11.5 14"
        stroke="currentColor"
        stroke-width="1.5"
        stroke-linecap="round"
        stroke-linejoin="round"
      />
      <circle cx="12" cy="17" r="1" fill="currentColor"/>
      <path
        d="M7 3.33782C8.47087 2.48697 10.1786 2 12 2C17.5228 2 22 6.47715 22 12C22 17.5228 17.5228 22 12 22C6.47715 22 2 17.5228 2 12C2 10.1786 2.48697 8.47087 3.33782 7"
        stroke="currentColor"
        stroke-width="2"
        opacity="0.5"
        stroke-linecap="round"
      />
    </g>
  </symbol>
  <symbol id="alert-error" viewBox="0 0 24 24">
    <g fill="none">
      <path
        stroke="currentColor"
        stroke-width="1.5"
        stroke-linecap="round"
        d="M14.5 9.50002L9.5 14.5M9.49998 9.5L14.5 14.5"
      />
      <path
        stroke="currentColor"
        stroke-linecap="round"
        stroke-width="2"
        opacity="0.5"
        d="M7 3.33782C8.47087 2.48697 10.1786 2 12 2C17.5228 2 22 6.47715 22 12C22 17.5228 17.5228 22 12 22C6.47715 22 2 17.5228 2 12C2 10.1786 2.48697 8.47087 3.33782 7"
      />
    </g>
  </symbol>

  <symbol id="arrow-down-1" viewBox="0 0 24 24">
    <path stroke-linecap="round" stroke-linejoin="round" stroke-width="2" d="M19 9l-7 7-7-7"/>
  </symbol>
  <symbol id="astronaut" viewBox="0 0 64 64">
    <g id="SVGRepo_iconCarrier">
      <path
        d="m12.11 9.68c.82.08 3.34 3.08 4.46 4.2s1.38 2 2.67 2.5 1.41.55 1.5.38a12.33 12.33 0 0 0 .26-1.29s-1.46-.38-1.67-.92 3-9 3.63-9.33 1.45 0 1.33.33-3.92 8.25-3.67 8.54a2.86 2.86 0 0 0 .79.54s.67-1 1-1a3.66 3.66 0 0 1 1.17.59s.29-.8.79-.67a2.63 2.63 0 0 1 1 .75s.13-.54.55-.33 3.16 1.75 3.16 1.75a10 10 0 0 1 2.57-9.92c4.42-4.33 9-3.92 14-1s4.13 7.92 4.09 10-2 4.87-4.25 6.54-3.17 1.66-3.17 1.66 3.42 1 3.38 1.62a14.74 14.74 0 0 1 -1.3 2.84 13.45 13.45 0 0 0 4.09 2.75c2.83 1.33 7.58 2.25 8.62 3.41a5.63 5.63 0 0 1 .38 6.17c-1.29 2.58-3.21 2.88-6.42 1.5s-4.29-2.58-6-3.08a17.12 17.12 0 0 1 -3.07-1.08c-.75-.37-1.21-1.79-1.75-1.33a39.43 39.43 0 0 0 -4 6.54 76.88 76.88 0 0 0 -3.68 7.66c-.46 1.33-2.62 6.79-3.67 8.21s-2 3.16-2.91 3.25-5.29-1.88-6-2.34-2-1.33-1.54-2.5 4.16-8.36 5.08-10.62 1.42-3 1.12-3.29-2-.55-2.25 0-4.4 9.97-5.4 11.67-3.34 2-5.67 1-4.21-2.91-4.46-3.66a3.33 3.33 0 0 1 0-2.29c.29-.71 3.54-5.92 4.13-7.34a18.31 18.31 0 0 1 2.12-3.87c.71-.92 3.13-5.59 4.84-8.59s2-4.16 1.7-4.33a13.5 13.5 0 0 0 -3.66-1.12c-1 0-3 .16-3.59-.34a79.39 79.39 0 0 1 -4.62-7c-1.25-2-2.29-2.83-1.92-3.91a5.7 5.7 0 0 1 3-2.75 6.59 6.59 0 0 1 3.24-.5z"
        fill="#1d1d1b"/>
      <path
        d="m11.53 11.76a2.78 2.78 0 0 1 1.37 1c.46.58 1.71 2 1.34 2.25s-2.09 1.29-2.71 1.79-.71 1.13-1 .84-2.5-3.8-2.42-4.38 1.13-1.88 3.42-1.5z"
        fill="#85bfe9"/>
      <path
        d="m14.82 16c.23 0 1.71 1.92 4.25 2.62a28.38 28.38 0 0 0 6.71 1.42c2 0 4.67-.21 5-.08s0 1.37 3.5 2.54a21.44 21.44 0 0 0 5.5 1c.17.17 2.17 4.71 3.38 5.92s7 3.41 6.79 3.79a35 35 0 0 0 -1.29 3.46c-.13.5 0 .79-.38.7s-3.79-1.45-4.25-1.66-.79-.09-1.33-.75-1.5-2.54-2.17-2.59a1.39 1.39 0 0 0 -1.33.63c-.21.37-2.8 4.08-3.59 5.54s-2.66 6.25-3.16 7-.71 1.71-.92 1.58a32.79 32.79 0 0 0 -3-1.87c-.37-.09-2.17-.54-2.08-.75s1.33-2.42.54-3a17.75 17.75 0 0 0 -4.42-1.38c-.5-.12-1.87 2.18-1.87 2.18a34.93 34.93 0 0 0 -3.17-2.17c-1-.54-2.71-.87-2.63-1.16s4.34-8 5.42-9.84 2.42-4.29 1.46-4.79a27.66 27.66 0 0 0 -5.38-1.58 5.23 5.23 0 0 1 -2.25-.17c-.45-.29-3-3.5-2.79-4.08a11.11 11.11 0 0 1 3.46-2.51z"
        fill="#cbe7f5"/>
      <path d="m22.49 14.84c.3 0 .46 0 .37.46s-.37 2-.54 1.92-.71-.09-.62-.25a16.21 16.21 0 0 1 .79-2.13z"
            fill="#f2910d"/>
      <path d="m24.4 14.76s.71.17.63.33-.5 2.42-.71 2.38-.5 0-.54-.17.62-2.54.62-2.54z" fill="#f2910d"/>
      <path
        d="m26.11 15.47c.27-.21 2.92 1.16 3.17 1.46s.62.83.42.87-2.13.08-2.84.13-1.46 0-1.41-.17a10.72 10.72 0 0 1 .66-2.29z"
        fill="#e7413e"/>
      <path
        d="m37.61 4.84c2.86-.54 5.92.79 8.29 2.5s2.8 5.5 1.84 8.29-3.54 5.5-6.74 5.75-6-.29-8.34-2.7-1.66-7.55-.66-9.55a7.82 7.82 0 0 1 5.61-4.29z"
        fill="#85bfe9"/>
      <path
        d="m35.45 7.22a32.21 32.21 0 0 0 6.7 3.41c3.71 1.34 5.21 1.75 5.17 2.3s-.32 5.07-3.92 6.79a8.72 8.72 0 0 1 -9.7-1.42c-2.42-2.17-2.05-5.37-.92-7.79s2.46-3.42 2.67-3.29z"
        fill="#1d1d1b"/>
      <path
        d="m36 9.8c.44.1 2.79 1.38 5.37 2.5s4 1.33 3.92 1.83a7 7 0 0 1 -2.59 3.71c-1.58 1-3.54 1.25-6-.25s-2.58-3-2.29-4.62 1.16-3.25 1.59-3.17z"
        fill="#1f4863"/>
      <path d="m40.11 13c.5.33 1.71 1.83 1.42 2.12s-.17.67-.67.46a5 5 0 0 1 -1.66-2.12c.08-.28.91-.46.91-.46z"
            fill="#1d1d1b"/>
      <path d="m37.74 13.88c.12-.05 2.25 2.67 2 3s-.79.63-.92.54-2.16-2.75-2-3 .58-.37.92-.54z" fill="#1d1d1b"/>
      <path d="m42.45 24c-.16-.16 1.87.54 1.79.92s0 1.29-.42 1.12-1.29-1.95-1.37-2.04z" fill="#e7413e"/>
      <path
        d="m51.24 33.72c.17-.08 3.91 1 4.5 1.75s.29 2.5-.25 3.46-.79 1.07-1.42 1.07a17 17 0 0 1 -4.21-1.83c-.25-.29 1-4.29 1.38-4.45z"
        fill="#85bfe9"/>
      <path d="m27.07 23.13c.32-.2 9.54 4.21 9.42 4.92s-3 7.54-4 7.88-8.75-3.5-9-4.25 3.12-8.25 3.58-8.55z"
            fill="#1d1d1b"/>
      <path d="m27.57 24.68c.2-.08 7.63 3.33 7.54 3.7s-3 6.17-3.16 6.17-6.95-3.21-6.95-3.55 2.24-6.2 2.57-6.32z"
            fill="#e7413e"/>
      <g fill="#1d1d1b">
        <path d="m31.05 28c.31-.63 1.22-.87 2.3 0s-.63 2.83-1.85 2-.63-1.61-.45-2z"/>
        <path d="m30 31.14c.26-.52 1-.72 1.91 0s-.52 2.35-1.54 1.62-.52-1.33-.37-1.62z"/>
        <path d="m35 35.63s.71 1 .5 1.38-.33.67-.54.5a2.26 2.26 0 0 1 -.59-1.17c.08-.25.63-.71.63-.71z"/>
        <path
          d="m32.9 36.93c.17.12 1.25 1.87 1 2.29s-.25.5-.45.5a6.56 6.56 0 0 1 -1.45-2.21c0-.21.9-.58.9-.58z"/>
        <path
          d="m31.32 38.13c.25.09 1.83 2.34 1.71 2.71a2.39 2.39 0 0 1 -.5.75s-2.21-2.66-2-2.91a2.66 2.66 0 0 1 .79-.55z"/>
        <path d="m29.86 39.3s2.21 2.88 2 3.33 0 .55-.41.46-2.59-2.79-2.38-3.09a4.7 4.7 0 0 1 .79-.7z"/>
      </g>
      <path
        d="m14.4 39.93c.14-.17 1.38.75 1.92 1.12a2.39 2.39 0 0 0 1.21.63 2.33 2.33 0 0 1 1.21.62c.37.29 1.46.71 1.33.92s-1.5 3.91-1.79 4.54-.67 1.29-.67 1.29-.12.25-.5-.25-1.11-1.37-1.46-1.37-.91.5-1.37.16-1.17-2.08-1.67-2.21-.87.13-.87-.16a52.35 52.35 0 0 1 2.66-5.29z"
        fill="#85bfe9"/>
      <path
        d="m26.24 45.63a6.93 6.93 0 0 1 2.12.8c.88.45 1 1 1.71 1.33s1.08.21 1.08.54-1.5 4.25-1.83 4.29a5 5 0 0 1 -2.25-.46c-.42-.33-.79-1.16-1.37-1.08a4.68 4.68 0 0 1 -1.5 0c-.42-.08-.75-.12-.63-.54s2.29-4.79 2.67-4.88z"
        fill="#85bfe9"/>
      <path
        d="m27.24 47.51c.38 0 .46.37 1 .46s.79.16.7.41-.12.67-.33.55a2.4 2.4 0 0 0 -.87-.46c-.34 0-.75-.09-.8-.25a1.11 1.11 0 0 1 .3-.71z"
        fill="#1d1d1b"/>
      <path
        d="m25.74 49.26c.33 0 .46.46 1 .62s.91.09.83.46 0 .67-.29.59-.75-.46-1.17-.55-.66.09-.79-.29a.79.79 0 0 1 .42-.83z"
        fill="#1d1d1b"/>
      <path
        d="m16.61 42.43c.21 0 0 .29.59.5s.91.29.83.5-.17.45-.42.45a3.87 3.87 0 0 1 -1-.37c-.42-.17-.5-.21-.5-.38a1.64 1.64 0 0 1 .5-.7z"
        fill="#1d1d1b"/>
      <path
        d="m14 43.38c.27-.26.58.88 1.25 1.09s1 .25 1.08.46.17.62-.12.7a1.25 1.25 0 0 1 -1.13-.29c-.46-.33-.79-.87-1.21-1s-.58 0-.54-.2.57-.63.67-.76z"
        fill="#1d1d1b"/>
      <path
        d="m11.28 46.22c.18-.18 1.08-.25 1.25.21s.21 2.12 1.08 2.37 1.17-.58 1.71-.17.67.92 1 1 .75.12.71.29-1.62 3.12-2.33 3.58-1.38.5-3.21-.46-2.63-1.53-2.49-2.49 2-4.04 2.28-4.33z"
        fill="#cbe7f5"/>
      <path
        d="m23 51.63c.27-.26.25.75 1 .8s1.08-.17 1.63 0 .66.91 1.54 1.08 1.62.33 1.58.5-2.75 5.25-3.08 5.21a34.19 34.19 0 0 1 -3.43-1.22c-1-.42-1.38-.92-1.29-1.29a44.9 44.9 0 0 1 2.05-5.08z"
        fill="#cbe7f5"/>
    </g>
  </symbol>

  <symbol id="calendar" viewBox="0 0 20 20">
    <path
      d="M20 4a2 2 0 0 0-2-2h-2V1a1 1 0 0 0-2 0v1h-3V1a1 1 0 0 0-2 0v1H6V1a1 1 0 0 0-2 0v1H2a2 2 0 0 0-2 2v2h20V4ZM0 18a2 2 0 0 0 2 2h16a2 2 0 0 0 2-2V8H0v10Zm5-8h10a1 1 0 0 1 0 2H5a1 1 0 0 1 0-2Z"/>
  </symbol>
  <symbol id="certificate" viewBox="0 0 431.17 431.17">
    <path
      d="M68.831,99.602h255.814c7.878,0,14.265-6.387,14.265-14.265c0-7.878-6.387-14.265-14.265-14.265H68.831 c-7.878,0-14.265,6.387-14.265,14.265C54.566,93.215,60.953,99.602,68.831,99.602z"/>
    <path
      d="M68.831,160.465h255.814c7.878,0,14.265-6.387,14.265-14.265c0-7.878-6.387-14.265-14.265-14.265H68.831 c-7.878,0-14.265,6.387-14.265,14.265C54.566,154.078,60.953,160.465,68.831,160.465z"/>
    <path
      d="M204.549,192.799H68.831c-7.878,0-14.265,6.387-14.265,14.265c0,7.878,6.387,14.265,14.265,14.265h135.718 c7.878,0,14.265-6.387,14.265-14.265C218.814,199.186,212.427,192.799,204.549,192.799z"/>
    <path
      d="M430.373,409.679l-37.295-73.843l14.431-5.759c3.79-1.513,6.97-5.888,7.24-9.96l1.229-18.516 c0.206-3.102,1.778-7.941,3.434-10.569l9.886-15.702c2.175-3.452,2.175-8.861,0.001-12.314l-9.887-15.702 c-1.654-2.628-3.227-7.469-3.433-10.569l-1.228-18.516c-0.232-3.486-2.6-7.188-5.652-9.132V37.438 c0-15.732-12.798-28.53-28.529-28.53H28.529C12.798,8.908,0,21.706,0,37.438v244.381c0,15.732,12.798,28.529,28.529,28.529h224.396 l0.648,9.77c0.271,4.072,3.45,8.446,7.24,9.959l13.549,5.407l-37.474,74.195c-1.153,2.284-0.844,3.66-0.381,4.412 c0.293,0.477,1.011,1.275,2.523,1.275c0.756,0,1.627-0.204,2.589-0.606l30.697-12.852c0.755-0.316,1.653-0.483,2.597-0.483 c2.255,0,4.553,0.933,5.854,2.374l14.746,16.349c1.229,1.363,2.751,2.114,4.283,2.114c2.022,0,3.836-1.307,4.85-3.494l28.89-62.32 c0.063-0.001,0.125-0.001,0.188-0.002l28.891,62.322c1.014,2.188,2.827,3.494,4.851,3.494c1.531,0,3.053-0.751,4.282-2.115 l14.745-16.347c1.302-1.442,3.6-2.375,5.854-2.375c0.943,0,1.842,0.167,2.597,0.483l30.697,12.852 c0.962,0.402,1.833,0.606,2.589,0.606c1.513,0,2.23-0.799,2.523-1.275C431.217,413.339,431.526,411.963,430.373,409.679z M28.529,37.438h352.039l0.002,156.56l-11.152-13.417c-2.036-2.449-5.764-4.094-9.275-4.094c-0.855,0-1.673,0.098-2.433,0.291 l-17.998,4.581c-2.867,0.729-8.236,0.729-11.104,0l-17.996-4.581c-0.76-0.193-1.578-0.291-2.433-0.291 c-3.512,0-7.239,1.645-9.275,4.094l-11.866,14.277c-1.984,2.389-6.099,5.379-8.983,6.53l-17.24,6.882 c-3.791,1.513-6.971,5.887-7.241,9.959l-1.229,18.516c-0.205,3.102-1.777,7.941-3.433,10.569l-9.886,15.702 c-2.175,3.452-2.175,8.862,0,12.314l4.085,6.488H28.529V37.438z M334.16,329.825c-33.497,0-60.652-27.154-60.652-60.652 c0-33.498,27.155-60.652,60.652-60.652c33.498,0,60.654,27.154,60.654,60.652C394.815,302.671,367.658,329.825,334.16,329.825z"/>
  </symbol>
  <symbol id="checkbox1" viewBox="0 0 16 16">
    <path
      d="M3 14.5A1.5 1.5 0 0 1 1.5 13V3A1.5 1.5 0 0 1 3 1.5h8a.5.5 0 0 1 0 1H3a.5.5 0 0 0-.5.5v10a.5.5 0 0 0 .5.5h10a.5.5 0 0 0 .5-.5V8a.5.5 0 0 1 1 0v5a1.5 1.5 0 0 1-1.5 1.5z"/>
    <path d="m8.354 10.354 7-7a.5.5 0 0 0-.708-.708L8 9.293 5.354 6.646a.5.5 0 1 0-.708.708l3 3a.5.5 0 0 0 .708 0"/>
  </symbol>
  <symbol id="check1" viewBox="0 0 16 16">
    <path
      d="M13.854 3.646a.5.5 0 0 1 0 .708l-7 7a.5.5 0 0 1-.708 0l-3.5-3.5a.5.5 0 1 1 .708-.708L6.5 10.293l6.646-6.647a.5.5 0 0 1 .708 0"/>
  </symbol>

  <symbol id="check2" viewBox="0 0 16 16">
    <path
      d="M12.736 3.97a.733.733 0 0 1 1.047 0c.286.289.29.756.01 1.05L7.88 12.01a.733.733 0 0 1-1.065.02L3.217 8.384a.757.757 0 0 1 0-1.06.733.733 0 0 1 1.047 0l3.052 3.093 5.4-6.425z"/>
  </symbol>

  <symbol id="company" viewBox="0 0 16 16">
    <path stroke="currentColor" stroke-width="0"
          d="M14.763.075A.5.5 0 0 1 15 .5v15a.5.5 0 0 1-.5.5h-3a.5.5 0 0 1-.5-.5V14h-1v1.5a.5.5 0 0 1-.5.5h-9a.5.5 0 0 1-.5-.5V10a.5.5 0 0 1 .342-.474L6 7.64V4.5a.5.5 0 0 1 .276-.447l8-4a.5.5 0 0 1 .487.022M6 8.694 1 10.36V15h5zM7 15h2v-1.5a.5.5 0 0 1 .5-.5h2a.5.5 0 0 1 .5.5V15h2V1.309l-7 3.5z"></path>
    <path stroke="currentColor" stroke-width="0"
          d="M2 11h1v1H2zm2 0h1v1H4zm-2 2h1v1H2zm2 0h1v1H4zm4-4h1v1H8zm2 0h1v1h-1zm-2 2h1v1H8zm2 0h1v1h-1zm2-2h1v1h-1zm0 2h1v1h-1zM8 7h1v1H8zm2 0h1v1h-1zm2 0h1v1h-1zM8 5h1v1H8zm2 0h1v1h-1zm2 0h1v1h-1zm0-2h1v1h-1z"></path>
  </symbol>

  <symbol id="delete1" viewBox="0 0 16 16">
    <path
      d="M6.5 1h3a.5.5 0 0 1 .5.5v1H6v-1a.5.5 0 0 1 .5-.5M11 2.5v-1A1.5 1.5 0 0 0 9.5 0h-3A1.5 1.5 0 0 0 5 1.5v1H1.5a.5.5 0 0 0 0 1h.538l.853 10.66A2 2 0 0 0 4.885 16h6.23a2 2 0 0 0 1.994-1.84l.853-10.66h.538a.5.5 0 0 0 0-1zm1.958 1-.846 10.58a1 1 0 0 1-.997.92h-6.23a1 1 0 0 1-.997-.92L3.042 3.5zm-7.487 1a.5.5 0 0 1 .528.47l.5 8.5a.5.5 0 0 1-.998.06L5 5.03a.5.5 0 0 1 .47-.53Zm5.058 0a.5.5 0 0 1 .47.53l-.5 8.5a.5.5 0 1 1-.998-.06l.5-8.5a.5.5 0 0 1 .528-.47M8 4.5a.5.5 0 0 1 .5.5v8.5a.5.5 0 0 1-1 0V5a.5.5 0 0 1 .5-.5"/>
  </symbol>
  <symbol id="delete2" viewBox="0 0 16 16">
    <path
      d="M4.646 4.646a.5.5 0 0 1 .708 0L8 7.293l2.646-2.647a.5.5 0 0 1 .708.708L8.707 8l2.647 2.646a.5.5 0 0 1-.708.708L8 8.707l-2.646 2.647a.5.5 0 0 1-.708-.708L7.293 8 4.646 5.354a.5.5 0 0 1 0-.708"/>
  </symbol>
  <symbol id="delete3" viewBox="0 0 16 16">
    <path
      d="M2.146 2.854a.5.5 0 1 1 .708-.708L8 7.293l5.146-5.147a.5.5 0 0 1 .708.708L8.707 8l5.147 5.146a.5.5 0 0 1-.708.708L8 8.707l-5.146 5.147a.5.5 0 0 1-.708-.708L7.293 8z"/>
  </symbol>
  <symbol id="delete4" viewBox="0 0 24 24">
    <path stroke="currentColor" stroke-width="2.5" stroke-linecap="round" d="M18 6 6 18M6 6l12 12"/>
  </symbol>

  <symbol id="dog" viewBox="0 0 64 64">
    <g id="SVGRepo_iconCarrier">
      <style type="text/css">
        .st0 {
          fill: none;
          stroke: #126BB5;
          stroke-width: 2;
          stroke-linecap: round;
          stroke-linejoin: round;
          stroke-miterlimit: 10;
        }

        .st1 {
          fill: none;
          stroke: #00B1E4;
          stroke-width: 2;
          stroke-linecap: round;
          stroke-linejoin: round;
          stroke-miterlimit: 10;
        }
      </style>
      <path class="st0"
            d="M32,39h-3.5H26c-7.7,0-14-6.3-14-14v0h18v0c0-3.9,3.1-7,7-7h3v-6h0c3.4,0,6.4,2.5,6.9,5.9l2.6,17.1"></path>
      <polyline class="st0" points="29,39 27,52 37.1,52 "></polyline>
      <rect class="st1" height="8" width="10" x="42" y="44"></rect>
      <path class="st1" d="M50,44h-6v-2c0-1.7,1.3-3,3-3h0c1.7,0,3,1.3,3,3V44z"></path>
      <line class="st1" x1="47" x2="47" y1="48" y2="48"></line>
      <circle class="st1" cx="36" cy="24" r="1"></circle>
      <path class="st0" d="M18,25L18,25c0,2.8-2.2,5-5,5h-0.1"></path>
    </g>
  </symbol>

  <symbol id="edit1" viewBox="0 -0.5 21 21">
    <g id="c3d8e94f-374d-4028-a95a-3f06fe9779c0" stroke="none" stroke-width="1" fill="currentColor" fill-rule="evenodd">
      <g id="9cb102d7-74fb-405f-8e06-0d11b7f24f74" transform="translate(-339.000000, -800.000000)">
        <path
          transform="translate(56.000000, 160.000000)"
          d="M286.15,654 C285.5704,654 285.1,653.552 285.1,653 L285.1,647 C285.1,646.448 285.5704,646 286.15,646 C286.7296,646 287.2,645.552 287.2,645 C287.2,644.448 286.7296,644 286.15,644 L285.1,644 C283.93975,644 283,644.895 283,646 L283,654 C283,655.105 283.93975,656 285.1,656 L286.15,656 C286.7296,656 287.2,655.552 287.2,655 C287.2,654.448 286.7296,654 286.15,654 M301.9,644 L294.55,644 C293.9704,644 293.5,644.448 293.5,645 C293.5,645.552 293.9704,646 294.55,646 L300.85,646 C301.4296,646 301.9,646.448 301.9,647 L301.9,653 C301.9,653.552 301.4296,654 300.85,654 L294.55,654 C293.9704,654 293.5,654.448 293.5,655 C293.5,655.552 293.9704,656 294.55,656 L301.9,656 C303.06025,656 304,655.105 304,654 L304,646 C304,644.895 303.06025,644 301.9,644 M293.5,659 C293.5,659.552 293.0296,660 292.45,660 L288.25,660 C287.6704,660 287.2,659.552 287.2,659 C287.2,658.448 287.6704,658 288.25,658 L289.3,658 L289.3,642 L288.25,642 C287.6704,642 287.2,641.552 287.2,641 C287.2,640.448 287.6704,640 288.25,640 L292.45,640 C293.0296,640 293.5,640.448 293.5,641 C293.5,641.552 293.0296,642 292.45,642 L291.4,642 L291.4,658 L292.45,658 C293.0296,658 293.5,658.448 293.5,659"
        />
      </g>
    </g>
  </symbol>
  <symbol id="email" viewBox="0 0 24 24">
    <path d="M17 20.5H7C4 20.5 2 19 2 15.5V8.5C2 5 4 3.5 7 3.5H17C20 3.5 22 5 22 8.5V15.5C22 19 20 20.5 17 20.5Z"
          id="vector"
          stroke="currentColor" stroke-linecap="round" stroke-linejoin="round" stroke-miterlimit="10"
          stroke-width="1.7"/>
    <path d="M18.7698 7.7688L13.2228 12.0551C12.5025 12.6116 11.4973 12.6116 10.777 12.0551L5.22998 7.7688"
          id="vector_2"
          stroke="currentColor" stroke-linecap="round" stroke-width="1.7"/>
  </symbol>
  <symbol id="eye-close-1" viewBox="0 0 24 24">
    <path id="Vector"
          d="M3.99989 4L19.9999 20M16.4999 16.7559C15.1473 17.4845 13.6185 17.9999 11.9999 17.9999C8.46924 17.9999 5.36624 15.5478 3.5868 13.7788C3.1171 13.3119 2.88229 13.0784 2.7328 12.6201C2.62619 12.2933 2.62616 11.7066 2.7328 11.3797C2.88233 10.9215 3.11763 10.6875 3.58827 10.2197C4.48515 9.32821 5.71801 8.26359 7.17219 7.42676M19.4999 14.6335C19.8329 14.3405 20.138 14.0523 20.4117 13.7803L20.4146 13.7772C20.8832 13.3114 21.1182 13.0779 21.2674 12.6206C21.374 12.2938 21.3738 11.7068 21.2672 11.38C21.1178 10.9219 20.8827 10.6877 20.4133 10.2211C18.6338 8.45208 15.5305 6 11.9999 6C11.6624 6 11.3288 6.02241 10.9999 6.06448M13.3228 13.5C12.9702 13.8112 12.5071 14 11.9999 14C10.8953 14 9.99989 13.1046 9.99989 12C9.99989 11.4605 10.2135 10.9711 10.5608 10.6113"
          stroke="#000000" stroke-width="2" stroke-linecap="round" stroke-linejoin="round"/>
  </symbol>
  <symbol id="eye-close-2" viewBox="0 0 16 16">
    <path
      d="m10.79 12.912-1.614-1.615a3.5 3.5 0 0 1-4.474-4.474l-2.06-2.06C.938 6.278 0 8 0 8s3 5.5 8 5.5a7 7 0 0 0 2.79-.588M5.21 3.088A7 7 0 0 1 8 2.5c5 0 8 5.5 8 5.5s-.939 1.721-2.641 3.238l-2.062-2.062a3.5 3.5 0 0 0-4.474-4.474z"/>
    <path
      d="M5.525 7.646a2.5 2.5 0 0 0 2.829 2.829zm4.95.708-2.829-2.83a2.5 2.5 0 0 1 2.829 2.829zm3.171 6-12-12 .708-.708 12 12z"/>
  </symbol>
  <symbol id="eye-open-2" viewBox="0 0 16 16">
    <path d="M10.5 8a2.5 2.5 0 1 1-5 0 2.5 2.5 0 0 1 5 0"/>
    <path d="M0 8s3-5.5 8-5.5S16 8 16 8s-3 5.5-8 5.5S0 8 0 8m8 3.5a3.5 3.5 0 1 0 0-7 3.5 3.5 0 0 0 0 7"/>
  </symbol>


  <symbol id="moon" viewBox="0 0 16 16">
    <path
      d="M6 .278a.77.77 0 0 1 .08.858 7.2 7.2 0 0 0-.878 3.46c0 4.021 3.278 7.277 7.318 7.277q.792-.001 1.533-.16a.79.79 0 0 1 .81.316.73.73 0 0 1-.031.893A8.35 8.35 0 0 1 8.344 16C3.734 16 0 12.286 0 7.71 0 4.266 2.114 1.312 5.124.06A.75.75 0 0 1 6 .278"></path>
  </symbol>

  <symbol id="sun" viewBox="0 0 16 16">
    <path
      d="M12 8a4 4 0 1 1-8 0 4 4 0 0 1 8 0M8 0a.5.5 0 0 1 .5.5v2a.5.5 0 0 1-1 0v-2A.5.5 0 0 1 8 0m0 13a.5.5 0 0 1 .5.5v2a.5.5 0 0 1-1 0v-2A.5.5 0 0 1 8 13m8-5a.5.5 0 0 1-.5.5h-2a.5.5 0 0 1 0-1h2a.5.5 0 0 1 .5.5M3 8a.5.5 0 0 1-.5.5h-2a.5.5 0 0 1 0-1h2A.5.5 0 0 1 3 8m10.657-5.657a.5.5 0 0 1 0 .707l-1.414 1.415a.5.5 0 1 1-.707-.708l1.414-1.414a.5.5 0 0 1 .707 0m-9.193 9.193a.5.5 0 0 1 0 .707L3.05 13.657a.5.5 0 0 1-.707-.707l1.414-1.414a.5.5 0 0 1 .707 0m9.193 2.121a.5.5 0 0 1-.707 0l-1.414-1.414a.5.5 0 0 1 .707-.707l1.414 1.414a.5.5 0 0 1 0 .707M4.464 4.465a.5.5 0 0 1-.707 0L2.343 3.05a.5.5 0 1 1 .707-.707l1.414 1.414a.5.5 0 0 1 0 .708"/>
  </symbol>


  <symbol id="markdown1" viewBox="0 0 16 16">
    <path
      d="M14 3a1 1 0 0 1 1 1v8a1 1 0 0 1-1 1H2a1 1 0 0 1-1-1V4a1 1 0 0 1 1-1zM2 2a2 2 0 0 0-2 2v8a2 2 0 0 0 2 2h12a2 2 0 0 0 2-2V4a2 2 0 0 0-2-2z"/>
    <path fill-rule="evenodd"
          d="M9.146 8.146a.5.5 0 0 1 .708 0L11.5 9.793l1.646-1.647a.5.5 0 0 1 .708.708l-2 2a.5.5 0 0 1-.708 0l-2-2a.5.5 0 0 1 0-.708"/>
    <path fill-rule="evenodd" d="M11.5 5a.5.5 0 0 1 .5.5v4a.5.5 0 0 1-1 0v-4a.5.5 0 0 1 .5-.5"/>
    <path
      d="M3.56 11V7.01h.056l1.428 3.239h.774l1.42-3.24h.056V11h1.073V5.001h-1.2l-1.71 3.894h-.039l-1.71-3.894H2.5V11z"/>
  </symbol>
  <symbol id="markdown2" viewBox="0 0 16 16">
    <path
      d="M0 4a2 2 0 0 1 2-2h12a2 2 0 0 1 2 2v8a2 2 0 0 1-2 2H2a2 2 0 0 1-2-2zm11.5 1a.5.5 0 0 0-.5.5v3.793L9.854 8.146a.5.5 0 1 0-.708.708l2 2a.5.5 0 0 0 .708 0l2-2a.5.5 0 0 0-.708-.708L12 9.293V5.5a.5.5 0 0 0-.5-.5M3.56 7.01h.056l1.428 3.239h.774l1.42-3.24h.056V11h1.073V5.001h-1.2l-1.71 3.894h-.039l-1.71-3.894H2.5V11h1.06z"/>
  </symbol>

  <symbol id="link" viewBox="0 0 16 16">
    <path
      d="M4.715 6.542 3.343 7.914a3 3 0 1 0 4.243 4.243l1.828-1.829A3 3 0 0 0 8.586 5.5L8 6.086a1 1 0 0 0-.154.199 2 2 0 0 1 .861 3.337L6.88 11.45a2 2 0 1 1-2.83-2.83l.793-.792a4 4 0 0 1-.128-1.287z"/>
    <path
      d="M6.586 4.672A3 3 0 0 0 7.414 9.5l.775-.776a2 2 0 0 1-.896-3.346L9.12 3.55a2 2 0 1 1 2.83 2.83l-.793.792c.112.42.155.855.128 1.287l1.372-1.372a3 3 0 1 0-4.243-4.243z"/>
  </symbol>

  <symbol id="loading" viewBox="0 0 1024 1024">
    <path
      fill="currentColor"
      d="M512 1024c-69.1 0-136.2-13.5-199.3-40.2C251.7 958 197 921 150 874c-47-47-84-101.7-109.8-162.7C13.5 648.2 0 581.1 0 512c0-19.9 16.1-36 36-36s36 16.1 36 36c0 59.4 11.6 117 34.6 171.3 22.2 52.4 53.9 99.5 94.3 139.9 40.4 40.4 87.5 72.2 139.9 94.3C395 940.4 452.6 952 512 952c59.4 0 117-11.6 171.3-34.6 52.4-22.2 99.5-53.9 139.9-94.3 40.4-40.4 72.2-87.5 94.3-139.9C940.4 629 952 571.4 952 512c0-59.4-11.6-117-34.6-171.3a440.45 440.45 0 0 0-94.3-139.9 437.71 437.71 0 0 0-139.9-94.3C629 83.6 571.4 72 512 72c-19.9 0-36-16.1-36-36s16.1-36 36-36c69.1 0 136.2 13.5 199.3 40.2C772.3 66 827 103 874 150c47 47 83.9 101.8 109.7 162.7 26.7 63.1 40.2 130.2 40.2 199.3s-13.5 136.2-40.2 199.3C958 772.3 921 827 874 874c-47 47-101.8 83.9-162.7 109.7-63.1 26.8-130.2 40.3-199.3 40.3z"/>
  </symbol>
  <symbol id="loading2" viewBox="0 0 16 16">
    <path d="M8 15A7 7 0 1 1 8 1a7 7 0 0 1 0 14m0 1A8 8 0 1 0 8 0a8 8 0 0 0 0 16"/>
    <path d="M11.354 4.646a.5.5 0 0 0-.708 0l-6 6a.5.5 0 0 0 .708.708l6-6a.5.5 0 0 0 0-.708"/>
  </symbol>
  <symbol id="loading3" viewBox="-1.76 -1.76 19.52 19.52">
    <path d="M8 1.5a6.5 6.5 0 100 13 6.5 6.5 0 000-13zM0 8a8 8 0 1116 0A8 8 0 010 8z" opacity=".5"></path>
    <path d="M7.25.75A.75.75 0 018 0a8 8 0 018 8 .75.75 0 01-1.5 0A6.5 6.5 0 008 1.5a.75.75 0 01-.75-.75z"></path>
  </symbol>

  <symbol id="power" viewBox="0 0 16 16">
    <path d="M7.5 1v7h1V1z"/>
    <path d="M3 8.812a5 5 0 0 1 2.578-4.375l-.485-.874A6 6 0 1 0 11 3.616l-.501.865A5 5 0 1 1 3 8.812"/>
  </symbol>

  <symbol id="stars" viewBox="0 0 64 64">
    <g id="SVGRepo_iconCarrier">
      <path
        d="m12.58 15.71c-.25-.12-.5-2.29-.88-2.33s-.95 2-.95 2-1.92.17-2 .54 1.71 1.21 1.71 1.33-1.05 1.13-.75 1.55 1.7-.46 1.87-.46 1.67 1.46 2 1.29-.46-2-.5-2.13 1.37-1 1.37-1.25-1.62-.41-1.87-.54zm8-5.33c.17-1.25-.65-2.58-2.08-2.29-1.88.37-2.38 2.29-1.55 3.08s3.46.46 3.63-.79zm34.62.25c.17-1.25-.64-2.58-2.08-2.29-1.87.37-2.37 2.29-1.54 3.08s3.42.46 3.62-.79zm-16.9 17.72a1.85 1.85 0 0 0 1.7-2.55c-.8-1.74-2.78-1.78-3.36-.79s.36 3.47 1.66 3.34zm-2.46 8.16c-1.91.13-2.65 2-1.92 2.86s3.37.89 3.7-.32a1.86 1.86 0 0 0 -1.78-2.54zm-25.35 16.32c-.85 1.72.36 3.28 1.5 3.11s2.47-2.46 1.58-3.36a1.85 1.85 0 0 0 -3.08.25zm32.84-33.7c.12.17 1.58-1.29 1.79-1.46s1.58.63 1.83.46-.5-1.75-.58-1.92 1.13-1.12 1.13-1.41-1.63-.17-1.8-.34-1-2.54-1.41-2.5-.69 3.36-.79 3.42c-.38.21-2.3 1.25-2.21 1.5s1.71.29 1.83.38.08 1.74.21 1.87zm-12.5 14.79c1-1 0-8 0-8.12s5.54-6 5-6.84-6.58-1.37-6.79-1.5-1.88-6.62-3-6.62-4.42 6.79-4.58 7c0 0-5.05-.71-5.55.12s3.92 6 3.92 6-3.83 7.34-2.75 8.63 6.83-2.67 7.42-2.5 5.29 4.79 6.33 3.83zm-19.83 10.25c.13-.12 1.38.75 1.67.54s-.21-1.45-.21-1.58 1.38-.92 1.29-1.12-1.79-.38-1.79-.38-.75-2.42-1.08-2.42-1 2-1 2.17c0 0-1.71.17-1.71.5s1.46.75 1.46.92-.38 2.12-.38 2.12a2.73 2.73 0 0 0 .67.29c.24.09.91-.91 1.08-1.04zm23.42.71c-.21-.71-4.25-1-4.25-1s-1.21-4.62-2.42-4.54-3.45 4.42-3.62 4.83c0 0-4.42-.29-4.75.54s4 4.25 4 4.59-2.13 4.75-1.38 5.54 4.71-2.46 5.09-2.5 5 2.08 5.75 1.42-1.59-4.46-1.55-4.76 3.29-3.41 3.08-4.12zm21.49-14.08c-.21-.88-6-1.38-6-1.38s-2-4.21-3.2-4.12-3.71 4.62-3.84 4.79c0 0-5.33 1.37-5.33 2.29s4.08 3.62 4.08 3.62-.62 6.46.38 7 5.5-3.83 5.71-3.83 5.88 3.29 6.17 3-.71-6-.75-6.13 2.99-4.37 2.78-5.24zm-15 18.66a8.83 8.83 0 0 0 -1.16 2.59s-2 1-2 1.21 1.79.37 1.83.62-.37 1.54-.12 1.83 1.2-.87 1.41-1 1.59.8 1.79.67-.37-1.54-.37-1.71 1.83-1.08 1.71-1.37-2-.29-2.13-.38-.58-2.66-.96-2.46z"
        fill="#1d1d1b"></path>
      <path d="m18.54 9c.71-.14 1.11.51 1 1.13s-1.38.78-1.79.39-.14-1.37.79-1.52z" fill="#ffe19b"></path>
      <path d="m53.16 9.22a.91.91 0 0 1 1 1.13c-.08.62-1.38.78-1.79.39s-.13-1.34.79-1.52z" fill="#ffe19b"></path>
      <path d="m39.2 26a.93.93 0 0 1 -.86 1.27c-.62.06-1.09-1.16-.8-1.66s1.26-.43 1.66.39z" fill="#cbe7f5"></path>
      <path d="m35.77 37.39a.91.91 0 0 1 .88 1.25c-.16.6-1.47.6-1.83.16s.01-1.35.95-1.41z" fill="#cbe7f5"></path>
      <path d="m11.21 53.34a.91.91 0 0 1 1.52-.13c.44.44-.22 1.57-.78 1.66s-1.16-.69-.74-1.53z" fill="#ffe19b"></path>
      <path
        d="m19 19c.11-.4 2.54.38 3.29.17s1.37-1.42 1.67-2 1.54-3.17 1.83-3.17 1.54 4.75 2 5.08 5.62 1 5.67 1.17-4.26 4.55-4.3 4.75.25 6.41.09 6.33-3.38-3-4.55-3.08-5.37 2.45-5.5 2.16 3-6.71 2.84-7-3.04-4.15-3.04-4.41z"
        fill="#ffe19b"></path>
      <g fill="#1d1d1b">
        <path
          d="m22.87 20.59c0-.13 1.42-2 1.71-1.79s.46.46.29.71a9.25 9.25 0 0 1 -1.33 1.58c-.17 0-.71-.29-.67-.5z"></path>
        <path
          d="m24.79 23.34a23.13 23.13 0 0 1 2.12 3c-.08.21-.16.37-.29.37a20.91 20.91 0 0 1 -2.46-2.83c-.04-.25.5-.29.63-.54z"></path>
        <path
          d="m25.2 22.59c-.06-.12.42-.38.67-.33a9.39 9.39 0 0 1 1.79 2.29 1.28 1.28 0 0 1 -.25.54s-2.04-2.21-2.21-2.5z"></path>
        <path d="m26.79 21.3c-.08-.11.58-.46.79-.38s1.17 1.34 1.08 1.63-.16.46-.37.5-1.38-1.59-1.5-1.75z"></path>
      </g>
      <path
        d="m23 45.84c.06-.2 2 .12 2.16-.08s2-3.59 2.21-3.55 1.21 3.21 1.33 3.25 2.8.25 2.84.55-2.25 2.54-2.17 2.87a15.72 15.72 0 0 1 .83 2.5c-.16 0-3-1.25-3.29-1.08a6.56 6.56 0 0 1 -2 .66c-.12-.12.54-2.62.5-2.83s-2.41-2.13-2.41-2.29z"
        fill="#f2910d"></path>
      <path
        d="m26.75 46.8a5.36 5.36 0 0 1 1.33 1.91c0 .25-.21.55-.33.46a15.67 15.67 0 0 1 -1.55-2c0-.08.42-.29.55-.37z"
        fill="#1d1d1b"></path>
      <path
        d="m27.79 45.76a5.24 5.24 0 0 1 1.33 1.91c0 .25-.21.54-.33.46a15.58 15.58 0 0 1 -1.54-2c0-.08.41-.29.54-.37z"
        fill="#1d1d1b"></path>
      <path
        d="m40.62 32.67c-.26-.26 3.42-.83 3.58-1.08s2.25-3.54 2.5-3.5 1.71 3.12 1.92 3.17 5 .41 5 .66-2.5 3.84-2.5 4.09a17.54 17.54 0 0 1 .21 2.75 33.74 33.74 0 0 1 -3-1.92 2.13 2.13 0 0 0 .08-.63 14 14 0 0 0 -2-2.16c-.16 0-.66.33-.5.46a11 11 0 0 1 1.5 2.25c-.08.12-3.71 3.5-3.91 3.2s.58-4.66.41-5-3.04-2.04-3.29-2.29z"
        fill="#fab900"></path>
      <path d="m47.54 33.46s.54-.41.71-.33a14.35 14.35 0 0 1 1.75 3.08c-.09.25-.63.42-.63.42s-1.67-3.08-1.83-3.17z"
            fill="#1d1d1b"></path>
      <path d="m49.62 32.84c-.08-.24.5-.17.67 0s.71 1.29.54 1.42-.5.5-.58.37-.55-1.54-.63-1.79z"
            fill="#1d1d1b"></path>
    </g>
  </symbol>

  <symbol id="view1" viewBox="0 0 16 16">
    <path
      d="M4 6a2 2 0 1 1 0 4 2 2 0 0 1 0-4m2.625.547a3 3 0 0 0-5.584.953H.5a.5.5 0 0 0 0 1h.541A3 3 0 0 0 7 8a1 1 0 0 1 2 0 3 3 0 0 0 5.959.5h.541a.5.5 0 0 0 0-1h-.541a3 3 0 0 0-5.584-.953A2 2 0 0 0 8 6c-.532 0-1.016.208-1.375.547M14 8a2 2 0 1 1-4 0 2 2 0 0 1 4 0"/>
  </symbol>
  <symbol id="view2" viewBox="0 0 16 16">
    <path
      d="M16 8s-3-5.5-8-5.5S0 8 0 8s3 5.5 8 5.5S16 8 16 8M1.173 8a13 13 0 0 1 1.66-2.043C4.12 4.668 5.88 3.5 8 3.5s3.879 1.168 5.168 2.457A13 13 0 0 1 14.828 8q-.086.13-.195.288c-.335.48-.83 1.12-1.465 1.755C11.879 11.332 10.119 12.5 8 12.5s-3.879-1.168-5.168-2.457A13 13 0 0 1 1.172 8z"/>
    <path d="M8 5.5a2.5 2.5 0 1 0 0 5 2.5 2.5 0 0 0 0-5M4.5 8a3.5 3.5 0 1 1 7 0 3.5 3.5 0 0 1-7 0"/>
  </symbol>
</svg>
