<svg style="display:none" xmlns="http://www.w3.org/2000/svg">
  <!-- Uploaded to: SVG Repo, www.svgrepo.com, Generator: SVG Repo Mixer Tools -->

  <symbol id="apple-app-store" viewBox="-145 129 220 256">
    <path fill="currentColor"
          d="M75,316.8c-6,13.3-8.9,19.3-16.6,31c-10.8,16.4-26,36.9-44.9,37.1c-16.8,0.2-21.1-10.9-43.8-10.8 c-22.7,0.1-27.5,11-44.3,10.8c-18.9-0.2-33.3-18.7-44.1-35.1c-30.2-46-33.4-99.9-14.7-128.6c13.2-20.4,34.1-32.3,53.8-32.3 c20,0,32.5,11,49.1,11c16,0,25.8-11,48.9-11c17.5,0,36,9.5,49.2,26C24.3,238.6,31.3,300.3,75,316.8L75,316.8z M0.8,170.6 c8.4-10.8,14.8-26,12.5-41.6c-13.7,0.9-29.8,9.7-39.1,21.1c-8.5,10.3-15.5,25.6-12.8,40.5C-23.7,191.1-8.2,182.1,0.8,170.6 L0.8,170.6z"/>
  </symbol>

  <symbol id="atlassian" viewBox="0 0 32 32">
    <path fill-rule="evenodd" clip-rule="evenodd"
          d="M11.1186 14.0842C10.9735 13.8943 10.7399 13.7941 10.5025 13.8199C10.265 13.8457 10.0584 13.9938 9.95749 14.2105L4.07422 25.9816C3.96525 26.1998 3.9769 26.4588 4.10501 26.6662C4.23312 26.8737 4.45943 27 4.70312 27H12.8953C13.1633 27.0062 13.4099 26.8537 13.5242 26.611C15.2913 22.9568 14.2203 17.4006 11.1186 14.0842Z"
          fill="url(#paint0_linear_87_7650)"/>
    <path fill-rule="evenodd" clip-rule="evenodd"
          d="M15.4339 3.37762C12.4515 7.96969 12.1073 13.7944 14.528 18.7062L18.4776 26.6108C18.5966 26.8492 18.8401 26.9998 19.1064 26.9998H27.2971C27.5408 26.9998 27.7671 26.8735 27.8952 26.6661C28.0233 26.4586 28.035 26.1996 27.926 25.9815C27.926 25.9815 16.9068 3.92489 16.6299 3.3732C16.5181 3.14406 16.2853 2.99906 16.0305 3C15.7757 3.00095 15.5439 3.14765 15.4339 3.37762Z"
          fill="#2684FF"/>
    <defs>
      <linearGradient id="paint0_linear_87_7650" x1="14.3428" y1="15.9009" x2="6.09079" y2="24.759"
                      gradientUnits="userSpaceOnUse">
        <stop stop-color="#0052CC"/>
        <stop offset="0.923" stop-color="#2684FF"/>
      </linearGradient>
    </defs>
  </symbol>

  <symbol id="bitbucket" viewBox="0 0 512 512">
    <rect width="512" height="512" rx="15%" fill="#ffffff"/>
    <path fill="#2684ff"
          d="M422 130a10 10 0 00-9.9-11.7H100.5a10 10 0 00-10 11.7L136 409a10 10 0 009.9 8.4h221c5 0 9.2-3.5 10 -8.4L422 130zM291 316.8h-69.3l-18.7-98h104.8z"/>
    <path fill="url(#a)" d="M59.632 25.2H40.94l-3.1 18.3h-13v18.9H52c1 0 1.7-.7 1.8-1.6l5.8-35.6z"
          transform="translate(89.8 85) scale(5.3285)"/>
    <linearGradient id="a" x2="1" gradientTransform="rotate(141 22.239 22.239) scale(31.4)"
                    gradientUnits="userSpaceOnUse">
      <stop offset="0" stop-color="#0052cc"/>
      <stop offset="1" stop-color="#2684ff"/>
    </linearGradient>
  </symbol>

  <symbol id="blogger" viewBox="0 0 45 45">
    <g id="Icons" stroke="none" stroke-width="1" fill="none" fill-rule="evenodd">
      <g id="Color-" transform="translate(-601.000000, -363.000000)" fill="#FF6500">
        <path
          d="M631.512829,396.302813 L615.440593,396.302813 C613.931748,396.302813 612.709429,395.069531 612.709429,393.597188 C612.709429,392.107969 613.931748,390.890156 615.440593,390.890156 L631.512829,390.890156 C633.006148,390.890156 634.228467,392.107969 634.228467,393.597188 C634.228467,395.069531 633.006148,396.302813 631.512829,396.302813 M615.440593,374.622656 L623.348974,374.622656 C624.857819,374.622656 626.080139,375.840469 626.080139,377.328281 C626.080139,378.8175 624.857819,380.049375 623.348974,380.049375 L615.440593,380.049375 C613.931748,380.049375 612.709429,378.8175 612.709429,377.328281 C612.709429,375.840469 613.931748,374.622656 615.440593,374.622656 M644.852487,380.410781 C643.902578,380.004375 639.827708,380.455781 638.695722,379.433438 C637.896838,378.696562 637.846026,377.363437 637.534094,375.584531 C637.011856,372.606094 636.794492,371.931094 636.251082,370.758281 C634.275045,366.578906 629.538203,363 625.234678,363 L615.259927,363 C607.412239,363 601,369.405469 601,377.222812 L601,393.806719 C601,401.61 607.412239,408 615.259927,408 L631.648328,408 C639.496017,408 645.8645,401.61 645.909667,393.806719 L646,382.320469 C646,382.320469 646,380.900156 644.852487,380.410781"
          id="Blogger"/>
      </g>
    </g>
  </symbol>

  <symbol id="codepen" viewBox="0 0 48 48">
    <g transform="translate(-800.000000, -160.000000)" fill="#0B0B0A">
      <path
        fill="currentColor"
        d="M847.982,176.419 C847.9775,176.3875 847.97,176.359 847.9655,176.329 C847.955,176.2705 847.9445,176.212 847.9295,176.1565 C847.9205,176.122 847.907,176.089 847.8965,176.056 C847.88,176.005 847.8635,175.9555 847.844,175.906 C847.8305,175.8715 847.814,175.837 847.7975,175.8055 C847.7765,175.7575 847.754,175.7125 847.727,175.669 C847.709,175.636 847.688,175.6045 847.6685,175.573 C847.6415,175.5295 847.613,175.4875 847.5815,175.447 C847.559,175.417 847.535,175.387 847.511,175.3585 C847.478,175.3195 847.4435,175.282 847.4075,175.246 C847.3805,175.219 847.355,175.1905 847.3265,175.1665 C847.2875,175.132 847.2485,175.099 847.2095,175.0675 C847.178,175.0435 847.148,175.0195 847.1165,174.997 C847.1045,174.9895 847.094,174.979 847.082,174.9715 L825.1445,160.3465 C824.4515,159.8845 823.55,159.8845 822.8555,160.3465 L800.9195,174.9715 C800.9075,174.979 800.897,174.9895 800.885,174.997 C800.852,175.0195 800.822,175.0435 800.792,175.0675 C800.7515,175.099 800.7125,175.132 800.675,175.1665 C800.6465,175.1905 800.6195,175.219 800.5925,175.246 C800.5565,175.282 800.522,175.3195 800.4905,175.3585 C800.465,175.387 800.441,175.417 800.4185,175.447 C800.3885,175.4875 800.36,175.5295 800.333,175.573 C800.312,175.6045 800.2925,175.636 800.273,175.669 C800.2475,175.7125 800.225,175.7575 800.2025,175.8055 C800.1875,175.837 800.171,175.8715 800.1575,175.906 C800.1365,175.9555 800.12,176.005 800.1035,176.056 C800.093,176.089 800.081,176.122 800.072,176.1565 C800.057,176.212 800.0465,176.2705 800.036,176.329 C800.03,176.359 800.0225,176.3875 800.0195,176.419 C800.0075,176.506 800,176.596 800,176.6875 L800,191.3125 C800,191.4025 800.0075,191.4925 800.0195,191.5825 C800.0225,191.611 800.03,191.641 800.036,191.671 C800.0465,191.7295 800.057,191.7865 800.072,191.8435 C800.081,191.878 800.093,191.911 800.1035,191.944 C800.12,191.9935 800.1365,192.0445 800.1575,192.0955 C800.171,192.1285 800.1875,192.1615 800.2025,192.1945 C800.225,192.241 800.2475,192.286 800.273,192.3325 C800.2925,192.364 800.312,192.3955 800.333,192.427 C800.36,192.4705 800.3885,192.511 800.4185,192.5515 C800.441,192.583 800.465,192.613 800.4905,192.6415 C800.522,192.679 800.5565,192.718 800.5925,192.7525 C800.6195,192.781 800.6465,192.808 800.675,192.8335 C800.7125,192.868 800.7515,192.901 800.792,192.9325 C800.822,192.9565 800.852,192.9805 800.885,193.003 C800.897,193.0105 800.9075,193.021 800.9195,193.0285 L822.8555,207.6535 C823.202,207.8845 823.601,208 824,208 C824.399,208 824.798,207.8845 825.1445,207.6535 L847.082,193.0285 C847.094,193.021 847.1045,193.0105 847.1165,193.003 C847.148,192.9805 847.178,192.9565 847.2095,192.9325 C847.2485,192.901 847.2875,192.868 847.3265,192.8335 C847.355,192.808 847.3805,192.781 847.4075,192.7525 C847.4435,192.718 847.478,192.679 847.511,192.6415 C847.535,192.613 847.559,192.583 847.5815,192.5515 C847.613,192.511 847.6415,192.4705 847.6685,192.427 C847.688,192.3955 847.709,192.364 847.727,192.3325 C847.754,192.286 847.7765,192.241 847.7975,192.1945 C847.814,192.1615 847.8305,192.1285 847.844,192.0955 C847.8635,192.0445 847.88,191.9935 847.8965,191.944 C847.907,191.911 847.9205,191.878 847.9295,191.8435 C847.9445,191.7865 847.955,191.7295 847.9655,191.671 C847.97,191.641 847.9775,191.611 847.982,191.5825 C847.994,191.4925 848,191.4025 848,191.3125 L848,176.6875 C848,176.596 847.994,176.506 847.982,176.419 L847.982,176.419 L847.982,176.419 Z M826.0625,165.9175 L842.2235,176.6905 L835.0055,181.519 L826.0625,175.537 L826.0625,165.9175 L826.0625,165.9175 Z M821.9375,165.9175 L821.9375,175.537 L812.996,181.519 L805.7765,176.6905 L821.9375,165.9175 L821.9375,165.9175 Z M804.125,180.5485 L809.2865,184 L804.125,187.4515 L804.125,180.5485 L804.125,180.5485 Z M821.9375,202.0825 L805.7765,191.3095 L812.996,186.4825 L821.9375,192.463 L821.9375,202.0825 L821.9375,202.0825 Z M824,188.8795 L816.7055,184 L824,179.1205 L831.296,184 L824,188.8795 L824,188.8795 Z M826.0625,202.0825 L826.0625,192.463 L835.0055,186.4825 L842.2235,191.3095 L826.0625,202.0825 L826.0625,202.0825 Z M843.875,187.4515 L838.715,184 L843.875,180.5485 L843.875,187.4515 L843.875,187.4515 Z"/>
    </g>
  </symbol>

  <symbol id="dev-to" viewBox="0 0 24 24">
    <path
      fill="currentColor"
      d="M7.42 10.05c-.18-.16-.46-.23-.84-.23H6l.02 2.44.04 2.45.56-.02c.41 0 .63-.07.83-.26.24-.24.26-.36.26-2.2 0-1.91-.02-1.96-.29-2.18zM0 4.94v14.12h24V4.94H0zM8.56 15.3c-.44.58-1.06.77-2.53.77H4.71V8.53h1.4c1.67 0 2.16.18 2.6.9.27.43.29.6.32 2.57.05 2.23-.02 2.73-.47 3.3zm5.09-5.47h-2.47v1.77h1.52v1.28l-.72.04-.75.03v1.77l1.22.03 1.2.04v1.28h-1.6c-1.53 0-1.6-.01-1.87-.3l-.3-.28v-3.16c0-3.02.01-3.18.25-3.48.23-.31.25-.31 1.88-.31h1.64v1.3zm4.68 5.45c-.17.43-.64.79-1 .79-.18 0-.45-.15-.67-.39-.32-.32-.45-.63-.82-2.08l-.9-3.39-.45-1.67h.76c.4 0 .75.02.75.05 0 .06 1.16 4.54 1.26 4.83.04.15.32-.7.73-2.3l.66-2.52.74-.04c.4-.02.73 0 .73.04 0 .14-1.67 6.38-1.8 6.68z"/>
  </symbol>

  <symbol id="discord" viewBox="0 0 32 32">
    <path
      d="M2 11.6C2 8.23969 2 6.55953 2.65396 5.27606C3.2292 4.14708 4.14708 3.2292 5.27606 2.65396C6.55953 2 8.23969 2 11.6 2H20.4C23.7603 2 25.4405 2 26.7239 2.65396C27.8529 3.2292 28.7708 4.14708 29.346 5.27606C30 6.55953 30 8.23969 30 11.6V20.4C30 23.7603 30 25.4405 29.346 26.7239C28.7708 27.8529 27.8529 28.7708 26.7239 29.346C25.4405 30 23.7603 30 20.4 30H11.6C8.23969 30 6.55953 30 5.27606 29.346C4.14708 28.7708 3.2292 27.8529 2.65396 26.7239C2 25.4405 2 23.7603 2 20.4V11.6Z"
      fill="white"/>
    <path
      d="M23.6361 9.33998C22.212 8.71399 20.6892 8.25903 19.0973 8C18.9018 8.33209 18.6734 8.77875 18.5159 9.13408C16.8236 8.89498 15.1469 8.89498 13.4857 9.13408C13.3283 8.77875 13.0946 8.33209 12.8974 8C11.3037 8.25903 9.77927 8.71565 8.35518 9.3433C5.48276 13.4213 4.70409 17.3981 5.09342 21.3184C6.99856 22.6551 8.84487 23.467 10.66 23.9983C11.1082 23.4189 11.5079 22.8029 11.8523 22.1536C11.1964 21.9195 10.5683 21.6306 9.9748 21.2951C10.1323 21.1856 10.2863 21.071 10.4351 20.9531C14.0551 22.5438 17.9881 22.5438 21.5649 20.9531C21.7154 21.071 21.8694 21.1856 22.0251 21.2951C21.4299 21.6322 20.8 21.9211 20.1442 22.1553C20.4885 22.8029 20.8865 23.4205 21.3364 24C23.1533 23.4687 25.0013 22.6567 26.9065 21.3184C27.3633 16.7738 26.1261 12.8335 23.6361 9.33998ZM12.3454 18.9075C11.2587 18.9075 10.3676 17.9543 10.3676 16.7937C10.3676 15.6331 11.2397 14.6783 12.3454 14.6783C13.4511 14.6783 14.3422 15.6314 14.3232 16.7937C14.325 17.9543 13.4511 18.9075 12.3454 18.9075ZM19.6545 18.9075C18.5678 18.9075 17.6767 17.9543 17.6767 16.7937C17.6767 15.6331 18.5488 14.6783 19.6545 14.6783C20.7602 14.6783 21.6514 15.6314 21.6323 16.7937C21.6323 17.9543 20.7602 18.9075 19.6545 18.9075Z"
      fill="#5865F2"/>
  </symbol>

  <symbol id="dribbble" viewBox="0 0 46 46">
    <g id="Icons" stroke="none" stroke-width="1" fill="none" fill-rule="evenodd">
      <g id="Color-" transform="translate(-601.000000, -161.000000)" fill="#EC4989">
        <path
          d="M634.977303,200.290258 C634.777151,199.105709 633.730405,193.33982 631.152761,186.262273 C637.495443,185.248104 642.988828,186.987066 643.394543,187.119584 C642.520903,192.593392 639.386076,197.312658 634.977303,200.290258 L634.977303,200.290258 L634.977303,200.290258 Z M624.001352,203.643777 C619.246369,203.643777 614.886282,201.953495 611.486388,199.140867 C611.746046,199.351814 611.927265,199.484332 611.927265,199.484332 C611.927265,199.484332 615.692303,191.27362 627.341742,187.21424 C627.385018,187.198013 627.430999,187.187195 627.474275,187.173673 C630.238549,194.353989 631.377256,200.368687 631.669371,202.086013 C629.313518,203.08666 626.719645,203.643777 624.001352,203.643777 L624.001352,203.643777 L624.001352,203.643777 Z M604.356618,183.998648 C604.356618,183.790405 604.367437,183.584867 604.372846,183.379329 C604.721762,183.387442 614.426471,183.606502 624.539601,180.580222 C625.102193,181.680934 625.640442,182.803281 626.13271,183.920219 C625.873052,183.990534 625.616099,184.068963 625.359146,184.155506 C614.759158,187.57934 609.382078,197.115233 609.382078,197.115233 C609.382078,197.115233 609.390192,197.123346 609.390192,197.126051 C606.260775,193.645423 604.356618,189.045153 604.356618,183.998648 L604.356618,183.998648 L604.356618,183.998648 Z M615.619274,166.238521 C615.881637,166.587395 619.514141,171.512199 622.914035,177.553942 C613.482507,180.060968 605.295173,179.960903 604.778562,179.95279 C606.052508,173.867776 610.139413,168.823976 615.619274,166.238521 L615.619274,166.238521 L615.619274,166.238521 Z M619.295055,164.929567 C619.295055,164.932271 619.29235,164.934976 619.29235,164.934976 C619.29235,164.934976 619.268007,164.940385 619.232845,164.945793 C619.254483,164.940385 619.273417,164.93768 619.295055,164.929567 L619.295055,164.929567 L619.295055,164.929567 Z M636.973423,169.262097 C636.924737,169.335117 634.128006,173.594626 626.711531,176.372097 C623.354913,170.203245 619.665608,165.302781 619.370788,164.91334 C620.855706,164.553648 622.405539,164.358928 624.001352,164.358928 C628.972717,164.358928 633.514024,166.214181 636.973423,169.262097 L636.973423,169.262097 L636.973423,169.262097 Z M643.637973,183.803927 C643.353972,183.741725 636.705651,182.311071 629.957253,183.160268 C629.816605,182.824916 629.678662,182.48686 629.532604,182.148804 C629.124184,181.186019 628.683307,180.234053 628.226201,179.298313 C635.983477,176.131401 639.131828,171.579811 639.169695,171.525722 C641.923149,174.871127 643.591992,179.144159 643.637973,183.803927 L643.637973,183.803927 L643.637973,183.803927 Z M646.53478,179.371333 C646.231846,177.894703 645.777445,176.437004 645.19051,175.046916 C644.617099,173.683873 643.900335,172.36951 643.069971,171.14169 C642.250426,169.924687 641.303757,168.778 640.265126,167.739491 C639.22379,166.698277 638.079673,165.754424 636.859822,164.932271 C635.631857,164.0993 634.31734,163.38803 632.954137,162.809277 C631.563885,162.225116 630.10872,161.770768 628.631916,161.470574 C627.117246,161.159563 625.559299,161 624.001352,161 C622.440701,161 620.882754,161.159563 619.368084,161.470574 C617.89128,161.770768 616.436115,162.225116 615.045863,162.809277 C613.68266,163.38803 612.368143,164.0993 611.137473,164.932271 C609.920327,165.754424 608.77621,166.698277 607.734874,167.739491 C606.696243,168.778 605.752278,169.924687 604.930029,171.14169 C604.099665,172.36951 603.382901,173.683873 602.80949,175.046916 C602.219851,176.437004 601.768154,177.894703 601.46522,179.371333 C601.156877,180.883121 601,182.440884 601,183.998648 C601,185.56182 601.156877,187.119584 601.46522,188.634076 C601.768154,190.110706 602.219851,191.565701 602.80949,192.953084 C603.382901,194.316127 604.099665,195.635899 604.930029,196.863719 C605.752278,198.080722 606.696243,199.222 607.734874,200.265918 C608.77621,201.304427 609.920327,202.245576 611.137473,203.070433 C612.368143,203.9007 613.68266,204.614675 615.045863,205.190723 C616.436115,205.780293 617.89128,206.229232 619.368084,206.529426 C620.882754,206.843142 622.440701,207 624.001352,207 C625.559299,207 627.117246,206.843142 628.631916,206.529426 C630.10872,206.229232 631.563885,205.780293 632.954137,205.190723 C634.31734,204.614675 635.631857,203.9007 636.859822,203.070433 C638.079673,202.245576 639.22379,201.304427 640.265126,200.265918 C641.303757,199.222 642.250426,198.080722 643.069971,196.863719 C643.900335,195.635899 644.617099,194.316127 645.19051,192.953084 C645.777445,191.565701 646.231846,190.110706 646.53478,188.634076 C646.843123,187.119584 647,185.56182 647,183.998648 C647,182.440884 646.843123,180.883121 646.53478,179.371333 L646.53478,179.371333 L646.53478,179.371333 Z"
          id="Dribbble"/>
      </g>
    </g>
  </symbol>

  <symbol id="dropbox" viewBox="0 0 32 32">
    <circle cx="16" cy="16" r="14" fill="#0F287F"/>
    <path fill-rule="evenodd" clip-rule="evenodd"
          d="M11 8L6 11L11 14L6 17L11 20L16 17L21 20L26 17L21 14L26 11L21 8L16 11L11 8ZM16 11L21 14L16 17L11 14L16 11Z"
          fill="#DAF8FE"/>
    <path d="M11 22L16 19L21 22L16 25L11 22Z" fill="#DAF8FE"/>
  </symbol>

  <symbol id="docker" viewBox="0 0 32 32">
    <circle cx="16" cy="16" r="14" fill="#1794D4"/>
    <path d="M18 7H16V9H18V7Z" fill="white"/>
    <path d="M10 10H12V12H10V10Z" fill="white"/>
    <path
      d="M6.00155 16.9414C6.17244 19.8427 7.90027 24 14 24C20.8 24 23.8333 19 24.5 16.5C25.3333 16.5 27.2 16 28 14C27.5 13.5 25.5 13.5 24.5 14C24.5 13.2 24 11.5 23 11C22.3333 11.6667 21.3 13.4 22.5 15C22 16 20.6667 16 20 16H6.9429C6.41342 16 5.97041 16.4128 6.00155 16.9414Z"
      fill="white"/>
    <path d="M9 13H7V15H9V13Z" fill="white"/>
    <path d="M10 13H12V15H10V13Z" fill="white"/>
    <path d="M15 13H13V15H15V13Z" fill="white"/>
    <path d="M16 13H18V15H16V13Z" fill="white"/>
    <path d="M21 13H19V15H21V13Z" fill="white"/>
    <path d="M15 10H13V12H15V10Z" fill="white"/>
    <path d="M16 10H18V12H16V10Z" fill="white"/>
  </symbol>
  <symbol id="docker0" viewBox="0 0 16 16">
    <path
      d="M12.342 4.536l.15-.227.262.159.116.083c.28.216.869.768.996 1.684.223-.04.448-.06.673-.06.534 0 .893.124 1.097.227l.105.057.068.045.191.156-.066.2a2.044 2.044 0 01-.47.73c-.29.299-.8.652-1.609.698l-.178.005h-.148c-.37.977-.867 2.078-1.702 3.066a7.081 7.081 0 01-1.74 1.488 7.941 7.941 0 01-2.549.968c-.644.125-1.298.187-1.953.185-1.45 0-2.73-.288-3.517-.792-.703-.449-1.243-1.182-1.606-2.177a8.25 8.25 0 01-.461-2.83.516.516 0 01.432-.516l.068-.005h10.54l.092-.007.149-.016c.256-.034.646-.11.92-.27-.328-.543-.421-1.178-.268-1.854a3.3 3.3 0 01.3-.81l.108-.187zM2.89 5.784l.04.007a.127.127 0 01.077.082l.006.04v1.315l-.006.041a.127.127 0 01-.078.082l-.039.006H1.478a.124.124 0 01-.117-.088l-.007-.04V5.912l.007-.04a.127.127 0 01.078-.083l.039-.006H2.89zm1.947 0l.039.007a.127.127 0 01.078.082l.006.04v1.315l-.007.041a.127.127 0 01-.078.082l-.039.006H3.424a.125.125 0 01-.117-.088L3.3 7.23V5.913a.13.13 0 01.085-.123l.039-.007h1.413zm1.976 0l.039.007a.127.127 0 01.077.082l.007.04v1.315l-.007.041a.127.127 0 01-.078.082l-.039.006H5.4a.124.124 0 01-.117-.088l-.006-.04V5.912l.006-.04a.127.127 0 01.078-.083l.039-.006h1.413zm1.952 0l.039.007a.127.127 0 01.078.082l.007.04v1.315a.13.13 0 01-.085.123l-.04.006H7.353a.124.124 0 01-.117-.088l-.006-.04V5.912l.006-.04a.127.127 0 01.078-.083l.04-.006h1.412zm1.97 0l.039.007a.127.127 0 01.078.082l.006.04v1.315a.13.13 0 01-.085.123l-.039.006H9.322a.124.124 0 01-.117-.088l-.006-.04V5.912l.006-.04a.127.127 0 01.078-.083l.04-.006h1.411zM4.835 3.892l.04.007a.127.127 0 01.077.081l.007.041v1.315a.13.13 0 01-.085.123l-.039.007H3.424a.125.125 0 01-.117-.09l-.007-.04V4.021a.13.13 0 01.085-.122l.039-.007h1.412zm1.976 0l.04.007a.127.127 0 01.077.081l.007.041v1.315a.13.13 0 01-.085.123l-.039.007H5.4a.125.125 0 01-.117-.09l-.006-.04V4.021l.006-.04a.127.127 0 01.078-.082l.039-.007h1.412zm1.953 0c.054 0 .1.037.117.088l.007.041v1.315a.13.13 0 01-.085.123l-.04.007H7.353a.125.125 0 01-.117-.09l-.006-.04V4.021l.006-.04a.127.127 0 01.078-.082l.04-.007h1.412zm0-1.892c.054 0 .1.037.117.088l.007.04v1.316a.13.13 0 01-.085.123l-.04.006H7.353a.124.124 0 01-.117-.088l-.006-.04V2.128l.006-.04a.127.127 0 01.078-.082L7.353 2h1.412z"
      fill="currentColor"></path>
  </symbol>

  <symbol id="evernote" viewBox="-4 0 48 48">
    <g stroke="none" stroke-width="1" fill="none" fill-rule="evenodd">
      <g transform="translate(-805.000000, -1043.000000)" fill="#20C05C">
        <path
          d="M834.792989,1065.70423 C834.147558,1065.68173 833.526032,1065.72223 832.946339,1065.81523 C833.109191,1064.49374 833.653026,1062.87076 835.578862,1062.93826 C837.710876,1063.01326 838.009687,1065.03524 838.017157,1066.40622 C837.117737,1066.00273 836.004667,1065.74773 834.792989,1065.70423 M843.909706,1051.35086 C843.552627,1049.43538 842.41864,1048.49189 841.392225,1048.12139 C840.286625,1047.7194 838.042556,1047.3039 835.223277,1046.9694 C832.955303,1046.70241 830.289911,1046.72341 828.679321,1046.7729 C828.486588,1045.44392 827.55878,1044.23043 826.518919,1043.81043 C823.751931,1042.69144 819.474455,1042.96144 818.377819,1043.27044 C817.505292,1043.51493 816.538639,1044.01743 816.00078,1044.78992 C815.640713,1045.30592 815.40764,1045.96891 815.406146,1046.8929 C815.406146,1047.4164 815.421087,1048.64789 815.433039,1049.74288 C815.446486,1050.84087 815.461426,1051.82336 815.461426,1051.83086 C815.461426,1052.80735 814.671072,1053.60384 813.692467,1053.60534 L809.205823,1053.60534 C808.248134,1053.60534 807.516048,1053.76734 806.958766,1054.02084 C806.398496,1054.27734 806.002571,1054.62083 805.700773,1055.02733 C805.101657,1055.83582 804.997073,1056.83181 805.000061,1057.8488 C805.000061,1057.8488 805.009026,1058.6813 805.209229,1060.28928 C805.375069,1061.53427 806.719717,1070.23269 807.997133,1072.87717 C808.491665,1073.90616 808.821851,1074.33515 809.79448,1074.78815 C811.962352,1075.72114 816.915141,1076.75763 819.235406,1077.05463 C821.552684,1077.35162 823.006398,1077.97712 823.87295,1076.15314 C823.875938,1076.14864 824.04626,1075.69864 824.280826,1075.04015 C825.033829,1072.75117 825.138413,1070.72019 825.138413,1069.2517 C825.138413,1069.1017 825.356545,1069.0957 825.356545,1069.2517 C825.356545,1070.28819 825.15933,1073.96016 827.921836,1074.94565 C829.012495,1075.33414 831.274492,1075.67914 833.572347,1075.95064 C835.650576,1076.19064 837.159571,1077.01113 837.159571,1082.36458 C837.159571,1085.62105 836.478282,1086.06805 832.916458,1086.06805 C830.028451,1086.06805 828.927334,1086.14304 828.927334,1083.84057 C828.927334,1081.97908 830.762032,1082.17408 832.120127,1082.17408 C832.728207,1082.17408 832.287461,1081.72108 832.287461,1080.5721 C832.287461,1079.42911 832.998631,1078.76911 832.326306,1078.75261 C827.626013,1078.62211 824.860519,1078.74661 824.860519,1084.64756 C824.860519,1090.00551 826.902891,1091 833.572347,1091 C838.80303,1091 840.646692,1090.8275 842.8056,1084.10156 C843.232899,1082.77258 844.266785,1078.72111 844.891299,1071.91567 C845.287224,1067.61371 844.51928,1054.62833 843.909706,1051.35086 M808.995161,1052.29735 L808.998149,1052.29735 L813.484793,1052.29735 C813.74177,1052.29735 813.949444,1052.08586 813.949444,1051.83086 C813.949444,1051.82936 813.895658,1047.96839 813.895658,1046.8944 L813.895658,1046.8809 C813.895658,1045.99891 814.079427,1045.23092 814.400648,1044.58592 L814.554536,1044.29793 C814.536607,1044.29943 814.520172,1044.30843 814.502244,1044.32493 L805.78444,1053.00535 C805.768005,1053.01885 805.756053,1053.03835 805.75157,1053.05635 C805.932351,1052.96635 806.17887,1052.84485 806.213233,1052.82985 C806.972212,1052.48485 807.89255,1052.29735 808.995161,1052.29735"/>
      </g>
    </g>
  </symbol>

  <symbol id="figma" viewBox="0 0 32 32">
    <path fill-rule="evenodd" clip-rule="evenodd"
          d="M16 16C16 13.7909 17.7909 12 20 12C22.2091 12 24 13.7909 24 16C24 18.2091 22.2091 20 20 20C17.7909 20 16 18.2091 16 16Z"
          fill="#1ABCFE"/>
    <path fill-rule="evenodd" clip-rule="evenodd"
          d="M8 24C8 21.7909 9.79086 20 12 20H16V24C16 26.2091 14.2091 28 12 28C9.79086 28 8 26.2091 8 24Z"
          fill="#0ACF83"/>
    <path fill-rule="evenodd" clip-rule="evenodd"
          d="M16 4V12H20C22.2091 12 24 10.2091 24 8C24 5.79086 22.2091 4 20 4H16Z" fill="#FF7262"/>
    <path fill-rule="evenodd" clip-rule="evenodd" d="M8 8C8 10.2091 9.79086 12 12 12H16V4H12C9.79086 4 8 5.79086 8 8Z"
          fill="#F24E1E"/>
    <path fill-rule="evenodd" clip-rule="evenodd"
          d="M8 16C8 18.2091 9.79086 20 12 20H16V12H12C9.79086 12 8 13.7909 8 16Z" fill="#A259FF"/>
  </symbol>

  <symbol id="facebook" viewBox="0 0 32 32">
    <circle cx="16" cy="16" r="14" fill="url(#paint0_linear_87_7208)"/>
    <path
      d="M21.2137 20.2816L21.8356 16.3301H17.9452V13.767C17.9452 12.6857 18.4877 11.6311 20.2302 11.6311H22V8.26699C22 8.26699 20.3945 8 18.8603 8C15.6548 8 13.5617 9.89294 13.5617 13.3184V16.3301H10V20.2816H13.5617V29.8345C14.2767 29.944 15.0082 30 15.7534 30C16.4986 30 17.2302 29.944 17.9452 29.8345V20.2816H21.2137Z"
      fill="white"/>
    <defs>
      <linearGradient id="paint0_linear_87_7208" x1="16" y1="2" x2="16" y2="29.917" gradientUnits="userSpaceOnUse">
        <stop stop-color="#18ACFE"/>
        <stop offset="1" stop-color="#0163E0"/>
      </linearGradient>
    </defs>
  </symbol>

  <symbol id="fb-messenger" viewBox="0 0 32 32">
    <path fill-rule="evenodd" clip-rule="evenodd"
          d="M16 28.1791C23.1797 28.1791 29 22.5426 29 15.5896C29 8.63654 23.1797 3 16 3C8.8203 3 3 8.63654 3 15.5896C3 19.3712 4.72168 22.7634 7.44737 25.0711V27.6188C7.44737 28.6145 8.4616 29.2824 9.36588 28.8821L12.193 27.6307C13.397 27.9873 14.6754 28.1791 16 28.1791Z"
          fill="url(#paint0_linear_87_7239)"/>
    <path
      d="M12.887 12.9133L9.11723 18.0689C8.71304 18.6217 9.43994 19.2858 9.99334 18.8693L13.2123 16.4469C13.5399 16.2003 13.9992 16.197 14.3307 16.4388L17.1935 18.5272C17.7425 18.9277 18.5272 18.8125 18.9269 18.2727L22.8805 12.9341C23.2905 12.3804 22.558 11.7109 22.0038 12.1328L18.6006 14.7236C18.2729 14.9731 17.8112 14.9777 17.4782 14.7347L14.6247 12.6531C14.0733 12.2509 13.285 12.369 12.887 12.9133Z"
      fill="white"/>
    <defs>
      <linearGradient id="paint0_linear_87_7239" x1="16" y1="3" x2="11.8286" y2="28.8583"
                      gradientUnits="userSpaceOnUse">
        <stop stop-color="#00B1FF"/>
        <stop offset="1" stop-color="#006BFF"/>
      </linearGradient>
    </defs>
  </symbol>

  <symbol id="github" viewBox="0 -0.5 48 48">
    <g stroke="none" stroke-width="1" fill="none" fill-rule="evenodd">
      <g transform="translate(-700.000000, -560.000000)" fill="#3E75C3">
        <path
          d="M723.9985,560 C710.746,560 700,570.787092 700,584.096644 C700,594.740671 706.876,603.77183 716.4145,606.958412 C717.6145,607.179786 718.0525,606.435849 718.0525,605.797328 C718.0525,605.225068 718.0315,603.710086 718.0195,601.699648 C711.343,603.155898 709.9345,598.469394 709.9345,598.469394 C708.844,595.686405 707.2705,594.94548 707.2705,594.94548 C705.091,593.450075 707.4355,593.480194 707.4355,593.480194 C709.843,593.650366 711.1105,595.963499 711.1105,595.963499 C713.2525,599.645538 716.728,598.58234 718.096,597.964902 C718.3135,596.407754 718.9345,595.346062 719.62,594.743683 C714.2905,594.135281 708.688,592.069123 708.688,582.836167 C708.688,580.205279 709.6225,578.054788 711.1585,576.369634 C710.911,575.759726 710.0875,573.311058 711.3925,569.993458 C711.3925,569.993458 713.4085,569.345902 717.9925,572.46321 C719.908,571.928599 721.96,571.662047 724.0015,571.651505 C726.04,571.662047 728.0935,571.928599 730.0105,572.46321 C734.5915,569.345902 736.603,569.993458 736.603,569.993458 C737.9125,573.311058 737.089,575.759726 736.8415,576.369634 C738.3805,578.054788 739.309,580.205279 739.309,582.836167 C739.309,592.091712 733.6975,594.129257 728.3515,594.725612 C729.2125,595.469549 729.9805,596.939353 729.9805,599.18773 C729.9805,602.408949 729.9505,605.006706 729.9505,605.797328 C729.9505,606.441873 730.3825,607.191834 731.6005,606.9554 C741.13,603.762794 748,594.737659 748,584.096644 C748,570.787092 737.254,560 723.9985,560"/>
      </g>
    </g>
  </symbol>
  <symbol id="github0" viewBox="0 0 24 24">
    <path
      d="M18.6713 2.62664C18.5628 2.36483 18.3534 2.16452 18.0959 2.07627L18.094 2.07564L18.0922 2.07501L18.0884 2.07374L18.0805 2.07114L18.0636 2.06583C18.0518 2.06223 18.039 2.05856 18.0252 2.05487C17.9976 2.04749 17.966 2.04007 17.9305 2.03319C17.8593 2.01941 17.7728 2.00787 17.6708 2.00279C17.466 1.99259 17.2037 2.00858 16.8817 2.08054C16.3447 2.20053 15.6476 2.47464 14.7724 3.03631C14.7152 3.07302 14.6572 3.11096 14.5985 3.15016C14.5397 3.13561 14.4809 3.12155 14.422 3.108C12.8261 2.74083 11.1742 2.74083 9.57825 3.108C9.51933 3.12156 9.46049 3.13561 9.40173 3.15017C9.34298 3.11096 9.28499 3.07302 9.22775 3.03631C8.35163 2.47435 7.65291 2.20029 7.11455 2.08039C6.79179 2.00852 6.52891 1.99262 6.324 2.00278C6.22186 2.00784 6.13536 2.01931 6.06428 2.03299C6.0288 2.03982 5.99732 2.04717 5.96983 2.05447C5.95609 2.05812 5.94336 2.06176 5.93163 2.06531L5.91481 2.07056L5.90698 2.07311L5.9032 2.07437L5.90135 2.07499L5.89952 2.07561C5.63979 2.16397 5.42877 2.36623 5.32049 2.63061C4.91716 3.6154 4.8101 4.70134 5.00435 5.74306C5.01379 5.79367 5.02394 5.84418 5.0348 5.89458C4.99316 5.95373 4.9527 6.01368 4.91343 6.07439C4.30771 7.01089 3.98553 8.12791 4.00063 9.27493C4.00208 11.7315 4.71965 13.4139 5.9332 14.4965C6.62014 15.1093 7.41743 15.4844 8.21873 15.7208C8.31042 15.7479 8.40217 15.7731 8.49381 15.7967C8.48043 15.8432 8.46796 15.8901 8.45641 15.9373C8.40789 16.1357 8.37572 16.3394 8.36083 16.5461C8.35948 16.5648 8.35863 16.5835 8.35829 16.6022L8.32436 18.421L8.32417 18.4407C8.32417 18.4464 8.32417 18.4521 8.32417 18.4577C8.26262 18.473 8.20005 18.4843 8.13682 18.4916C7.942 18.5141 7.74467 18.4977 7.5561 18.4434C7.36752 18.3891 7.19127 18.2979 7.03752 18.1749C6.88377 18.0519 6.75553 17.8994 6.66031 17.7261L6.6505 17.7087C6.38836 17.2535 6.02627 16.8639 5.59142 16.5695C5.15656 16.275 4.6604 16.0836 4.14047 16.0099C3.59365 15.9324 3.08753 16.3128 3.01002 16.8597C2.93251 17.4065 3.31296 17.9126 3.85978 17.9901C4.07816 18.0211 4.28688 18.1015 4.47012 18.2256C4.65121 18.3482 4.80277 18.5103 4.9134 18.7C5.1346 19.0992 5.43165 19.4514 5.78801 19.7365C6.14753 20.0242 6.56032 20.2379 7.00272 20.3653C7.43348 20.4893 7.88392 20.5291 8.32949 20.4825C8.33039 20.7224 8.33103 20.9065 8.33103 21C8.33103 21.5523 8.75521 22 9.27847 22H14.7558C15.279 22 15.7032 21.5523 15.7032 21V17.2095C15.729 16.7802 15.685 16.3499 15.5738 15.9373C15.5585 15.8805 15.5419 15.824 15.5241 15.7679C15.5838 15.753 15.6435 15.7373 15.7032 15.7208C16.5277 15.4937 17.3513 15.1224 18.0588 14.4983C19.2791 13.4217 19.9982 11.7379 19.9996 9.27493C20.0147 8.12791 19.6925 7.01089 19.0868 6.07439C19.0475 6.01358 19.007 5.95354 18.9652 5.89429C18.976 5.84399 18.9861 5.79358 18.9955 5.74306C19.1893 4.69934 19.0795 3.61142 18.6713 2.62664Z"
      fill="currentColor"></path>
  </symbol>

  <symbol id="gitlab" viewBox="0 0 256.00 256.00">
    <path
      d="M128.07485,236.074667 L128.07485,236.074667 L175.17885,91.1043048 L80.9708495,91.1043048 L128.07485,236.074667 L128.07485,236.074667 Z"
      fill="#E24329"/>
    <path
      d="M128.07485,236.074423 L80.9708495,91.104061 L14.9557638,91.104061 L128.07485,236.074423 L128.07485,236.074423 Z"
      fill="#FC6D26"/>
    <path
      d="M14.9558857,91.1044267 L14.9558857,91.1044267 L0.641828571,135.159589 C-0.663771429,139.17757 0.766171429,143.57955 4.18438095,146.06275 L128.074971,236.074789 L14.9558857,91.1044267 L14.9558857,91.1044267 Z"
      fill="#FCA326"/>
    <path
      d="M14.9558857,91.1045486 L80.9709714,91.1045486 L52.6000762,3.79026286 C51.1408762,-0.703146667 44.7847619,-0.701927619 43.3255619,3.79026286 L14.9558857,91.1045486 L14.9558857,91.1045486 Z"
      fill="#E24329"/>
    <path
      d="M128.07485,236.074423 L175.17885,91.104061 L241.193935,91.104061 L128.07485,236.074423 L128.07485,236.074423 Z"
      fill="#FC6D26"/>
    <path
      d="M241.193935,91.1044267 L241.193935,91.1044267 L255.507992,135.159589 C256.813592,139.17757 255.38365,143.57955 251.96544,146.06275 L128.07485,236.074789 L241.193935,91.1044267 L241.193935,91.1044267 Z"
      fill="#FCA326"/>
    <path
      d="M241.193935,91.1045486 L175.17885,91.1045486 L203.549745,3.79026286 C205.008945,-0.703146667 211.365059,-0.701927619 212.824259,3.79026286 L241.193935,91.1045486 L241.193935,91.1045486 Z"
      fill="#E24329"/>
  </symbol>

  <symbol id="google-play-store" viewBox="0 0 32 32">
    <mask id="mask0_87_8320" style="mask-type:alpha" maskUnits="userSpaceOnUse" x="7" y="3" width="24" height="26">
      <path
        d="M30.0484 14.4004C31.3172 15.0986 31.3172 16.9014 30.0484 17.5996L9.75627 28.7659C8.52052 29.4459 7 28.5634 7 27.1663L7 4.83374C7 3.43657 8.52052 2.55415 9.75627 3.23415L30.0484 14.4004Z"
        fill="#C4C4C4"/>
    </mask>
    <g mask="url(#mask0_87_8320)">
      <path
        d="M7.63473 28.5466L20.2923 15.8179L7.84319 3.29883C7.34653 3.61721 7 4.1669 7 4.8339V27.1664C7 27.7355 7.25223 28.2191 7.63473 28.5466Z"
        fill="url(#paint0_linear_87_8320)"/>
      <path
        d="M30.048 14.4003C31.3169 15.0985 31.3169 16.9012 30.048 17.5994L24.9287 20.4165L20.292 15.8175L24.6923 11.4531L30.048 14.4003Z"
        fill="url(#paint1_linear_87_8320)"/>
      <path
        d="M24.9292 20.4168L20.2924 15.8179L7.63477 28.5466C8.19139 29.0232 9.02389 29.1691 9.75635 28.766L24.9292 20.4168Z"
        fill="url(#paint2_linear_87_8320)"/>
      <path
        d="M7.84277 3.29865L20.2919 15.8177L24.6922 11.4533L9.75583 3.23415C9.11003 2.87878 8.38646 2.95013 7.84277 3.29865Z"
        fill="url(#paint3_linear_87_8320)"/>
    </g>
    <defs>
      <linearGradient id="paint0_linear_87_8320" x1="15.6769" y1="10.874" x2="7.07106" y2="19.5506"
                      gradientUnits="userSpaceOnUse">
        <stop stop-color="#00C3FF"/>
        <stop offset="1" stop-color="#1BE2FA"/>
      </linearGradient>
      <linearGradient id="paint1_linear_87_8320" x1="20.292" y1="15.8176" x2="31.7381" y2="15.8176"
                      gradientUnits="userSpaceOnUse">
        <stop stop-color="#FFCE00"/>
        <stop offset="1" stop-color="#FFEA00"/>
      </linearGradient>
      <linearGradient id="paint2_linear_87_8320" x1="7.36932" y1="30.1004" x2="22.595" y2="17.8937"
                      gradientUnits="userSpaceOnUse">
        <stop stop-color="#DE2453"/>
        <stop offset="1" stop-color="#FE3944"/>
      </linearGradient>
      <linearGradient id="paint3_linear_87_8320" x1="8.10725" y1="1.90137" x2="22.5971" y2="13.7365"
                      gradientUnits="userSpaceOnUse">
        <stop stop-color="#11D574"/>
        <stop offset="1" stop-color="#01F176"/>
      </linearGradient>
    </defs>
  </symbol>

  <symbol id="instagram" viewBox="0 0 32 32">
    <rect x="2" y="2" width="28" height="28" rx="6" fill="url(#paint0_radial_87_7153)"/>
    <rect x="2" y="2" width="28" height="28" rx="6" fill="url(#paint1_radial_87_7153)"/>
    <rect x="2" y="2" width="28" height="28" rx="6" fill="url(#paint2_radial_87_7153)"/>
    <path
      d="M23 10.5C23 11.3284 22.3284 12 21.5 12C20.6716 12 20 11.3284 20 10.5C20 9.67157 20.6716 9 21.5 9C22.3284 9 23 9.67157 23 10.5Z"
      fill="white"/>
    <path fill-rule="evenodd" clip-rule="evenodd"
          d="M16 21C18.7614 21 21 18.7614 21 16C21 13.2386 18.7614 11 16 11C13.2386 11 11 13.2386 11 16C11 18.7614 13.2386 21 16 21ZM16 19C17.6569 19 19 17.6569 19 16C19 14.3431 17.6569 13 16 13C14.3431 13 13 14.3431 13 16C13 17.6569 14.3431 19 16 19Z"
          fill="white"/>
    <path fill-rule="evenodd" clip-rule="evenodd"
          d="M6 15.6C6 12.2397 6 10.5595 6.65396 9.27606C7.2292 8.14708 8.14708 7.2292 9.27606 6.65396C10.5595 6 12.2397 6 15.6 6H16.4C19.7603 6 21.4405 6 22.7239 6.65396C23.8529 7.2292 24.7708 8.14708 25.346 9.27606C26 10.5595 26 12.2397 26 15.6V16.4C26 19.7603 26 21.4405 25.346 22.7239C24.7708 23.8529 23.8529 24.7708 22.7239 25.346C21.4405 26 19.7603 26 16.4 26H15.6C12.2397 26 10.5595 26 9.27606 25.346C8.14708 24.7708 7.2292 23.8529 6.65396 22.7239C6 21.4405 6 19.7603 6 16.4V15.6ZM15.6 8H16.4C18.1132 8 19.2777 8.00156 20.1779 8.0751C21.0548 8.14674 21.5032 8.27659 21.816 8.43597C22.5686 8.81947 23.1805 9.43139 23.564 10.184C23.7234 10.4968 23.8533 10.9452 23.9249 11.8221C23.9984 12.7223 24 13.8868 24 15.6V16.4C24 18.1132 23.9984 19.2777 23.9249 20.1779C23.8533 21.0548 23.7234 21.5032 23.564 21.816C23.1805 22.5686 22.5686 23.1805 21.816 23.564C21.5032 23.7234 21.0548 23.8533 20.1779 23.9249C19.2777 23.9984 18.1132 24 16.4 24H15.6C13.8868 24 12.7223 23.9984 11.8221 23.9249C10.9452 23.8533 10.4968 23.7234 10.184 23.564C9.43139 23.1805 8.81947 22.5686 8.43597 21.816C8.27659 21.5032 8.14674 21.0548 8.0751 20.1779C8.00156 19.2777 8 18.1132 8 16.4V15.6C8 13.8868 8.00156 12.7223 8.0751 11.8221C8.14674 10.9452 8.27659 10.4968 8.43597 10.184C8.81947 9.43139 9.43139 8.81947 10.184 8.43597C10.4968 8.27659 10.9452 8.14674 11.8221 8.0751C12.7223 8.00156 13.8868 8 15.6 8Z"
          fill="white"/>
    <defs>
      <radialGradient id="paint0_radial_87_7153" cx="0" cy="0" r="1" gradientUnits="userSpaceOnUse"
                      gradientTransform="translate(12 23) rotate(-55.3758) scale(25.5196)">
        <stop stop-color="#B13589"/>
        <stop offset="0.79309" stop-color="#C62F94"/>
        <stop offset="1" stop-color="#8A3AC8"/>
      </radialGradient>
      <radialGradient id="paint1_radial_87_7153" cx="0" cy="0" r="1" gradientUnits="userSpaceOnUse"
                      gradientTransform="translate(11 31) rotate(-65.1363) scale(22.5942)">
        <stop stop-color="#E0E8B7"/>
        <stop offset="0.444662" stop-color="#FB8A2E"/>
        <stop offset="0.71474" stop-color="#E2425C"/>
        <stop offset="1" stop-color="#E2425C" stop-opacity="0"/>
      </radialGradient>
      <radialGradient id="paint2_radial_87_7153" cx="0" cy="0" r="1" gradientUnits="userSpaceOnUse"
                      gradientTransform="translate(0.500002 3) rotate(-8.1301) scale(38.8909 8.31836)">
        <stop offset="0.156701" stop-color="#406ADC"/>
        <stop offset="0.467799" stop-color="#6A45BE"/>
        <stop offset="1" stop-color="#6A45BE" stop-opacity="0"/>
      </radialGradient>
    </defs>
  </symbol>

  <symbol id="jetbrains" viewBox="0 0 32 32">
    <path
      fill="currentColor"
      d="M0 0h32v32h-32zM2.803 28h12v-2h-12zM4.401 9.197h0.401c0.932-0.129 1.599-0.932 1.599-2v-3.197h-1.469v3.333c0 0.531-0.129 0.667-0.531 0.667s-0.667-0.136-0.803-0.401l-0.932 0.803c0.401 0.667 1.068 0.932 1.735 0.796zM11.068 9.197v-1.197h-2.803v-0.803h2.401v-1.197h-2.401v-0.803h2.803v-1.197h-4.265v5.333h4.265zM12.803 9.197h1.463v-4h1.599v-1.197h-4.531v1.197h1.599v4zM7.469 14.265c0-0.667-0.401-1.197-1.068-1.197 0.531-0.136 0.796-0.667 0.796-1.204 0-0.265-0.129-0.667-0.265-0.932-0.401-0.401-0.932-0.531-1.463-0.531h-2.667v5.197h2.667c1.197 0 2-0.531 2-1.333zM4.136 11.599h0.932c0.401 0 0.667 0.136 0.667 0.401 0 0.401-0.265 0.531-0.667 0.531h-0.932zM4.136 14.401v-0.932h1.061c0.537 0 0.803 0.129 0.667 0.395 0 0.272-0.265 0.537-0.667 0.537zM14 10.401l-2 4.667-0.803-1.204c0.667-0.265 1.068-0.932 1.068-1.599 0-0.401-0.129-0.932-0.401-1.197-0.531-0.537-1.197-0.667-1.728-0.667h-2.537v5.197h1.469v-1.599h0.667l1.068 1.599h2.395l0.401-0.932h2l0.401 0.932h1.599l-2.129-5.333h-1.469zM10 12.932h-0.932v-1.197h0.932c0.401 0 0.803 0.129 0.803 0.667 0 0.265-0.272 0.531-0.803 0.531zM15.197 13.599h-1.061l0.531-1.463zM17.735 15.599h1.463v-5.197h-1.463zM23.068 13.197l-2.136-2.796h-1.333v5.197h1.469v-2.796l2.265 2.932h1.197v-5.333h-1.463zM27.197 12.401c-0.667-0.136-0.932-0.265-0.932-0.537 0-0.129 0.136-0.265 0.537-0.265 0.531 0 1.061 0.265 1.463 0.537l0.803-1.068c-0.667-0.537-1.333-0.667-2.136-0.667-1.197 0-2 0.796-2 1.735 0 1.061 0.803 1.333 2 1.599 0.667 0.129 0.932 0.265 0.932 0.531s-0.265 0.401-0.667 0.401c-0.667 0-1.197-0.265-1.728-0.667l-0.803 0.932c0.667 0.537 1.599 0.803 2.401 0.803 1.333 0 2.129-0.667 2.129-1.735 0-0.932-0.796-1.333-2-1.599z"/>
  </symbol>

  <symbol id="jira" viewBox="0 0 32 32">
    <path
      d="M29.6647 15.2165L17.2075 3.1679L16 2L6.62269 11.0697L2.33526 15.2165C1.88825 15.6494 1.88825 16.3506 2.33526 16.7835L10.9025 25.0697L16 30L25.3773 20.9303L25.5225 20.7899L29.6647 16.7835C30.1118 16.3506 30.1118 15.6494 29.6647 15.2165ZM16 20.1394L11.7202 16L16 11.8606L20.2798 16L16 20.1394Z"
      fill="#2684FF"/>
    <path fill-rule="evenodd" clip-rule="evenodd"
          d="M15.9999 11.8606C13.1979 9.15007 13.1842 4.75994 15.9694 2.0332L6.60352 11.0881L11.701 16.0184L15.9999 11.8606Z"
          fill="url(#paint0_linear_87_7658)"/>
    <path fill-rule="evenodd" clip-rule="evenodd"
          d="M20.2912 15.9888L16 20.1392C17.3525 21.4466 18.1124 23.2202 18.1124 25.0695C18.1124 26.9189 17.3525 28.6925 16 29.9999L25.3888 20.9191L20.2912 15.9888Z"
          fill="url(#paint1_linear_87_7658)"/>
    <defs>
      <linearGradient id="paint0_linear_87_7658" x1="15.2357" y1="7.67312" x2="8.09646" y2="10.7902"
                      gradientUnits="userSpaceOnUse">
        <stop offset="0.18" stop-color="#0052CC"/>
        <stop offset="1" stop-color="#2684FF"/>
      </linearGradient>
      <linearGradient id="paint1_linear_87_7658" x1="16.8177" y1="24.2786" x2="23.9441" y2="21.1836"
                      gradientUnits="userSpaceOnUse">
        <stop offset="0.18" stop-color="#0052CC"/>
        <stop offset="1" stop-color="#2684FF"/>
      </linearGradient>
    </defs>
  </symbol>

  <symbol id="linkedin" viewBox="0 0 32 32">
    <rect x="2" y="2" width="28" height="28" rx="14" fill="#1275B1"/>
    <path
      d="M12.6186 9.69215C12.6186 10.6267 11.8085 11.3843 10.8093 11.3843C9.81004 11.3843 9 10.6267 9 9.69215C9 8.7576 9.81004 8 10.8093 8C11.8085 8 12.6186 8.7576 12.6186 9.69215Z"
      fill="white"/>
    <path d="M9.24742 12.6281H12.3402V22H9.24742V12.6281Z" fill="white"/>
    <path
      d="M17.3196 12.6281H14.2268V22H17.3196C17.3196 22 17.3196 19.0496 17.3196 17.2049C17.3196 16.0976 17.6977 14.9855 19.2062 14.9855C20.911 14.9855 20.9008 16.4345 20.8928 17.5571C20.8824 19.0244 20.9072 20.5219 20.9072 22H24V17.0537C23.9738 13.8954 23.1508 12.4401 20.4433 12.4401C18.8354 12.4401 17.8387 13.1701 17.3196 13.8305V12.6281Z"
      fill="white"/>
  </symbol>
  <symbol id="linkedin0" viewBox="0 0 24 24">
    <path clip-rule="evenodd"
          d="M12.51 8.796v1.697a3.738 3.738 0 0 1 3.288-1.684c3.455 0 4.202 2.16 4.202 4.97V19.5h-3.2v-5.072c0-1.21-.244-2.766-2.128-2.766-1.827 0-2.139 1.317-2.139 2.676V19.5h-3.19V8.796h3.168ZM7.2 6.106a1.61 1.61 0 0 1-.988 1.483 1.595 1.595 0 0 1-1.743-.348A1.607 1.607 0 0 1 5.6 4.5a1.601 1.601 0 0 1 1.6 1.606Z"
          fill-rule="evenodd"></path>
    <path d="M7.2 8.809H4V19.5h3.2V8.809Z"></path>
  </symbol>

  <symbol id="mailchimp" viewBox="0 0 32 32">
    <path
      d="M16 2C8.27812 2 2 8.27812 2 16C2 23.7219 8.27812 30 16 30C23.7219 30 30 23.7219 30 16C30 8.27812 23.7219 2 16 2Z"
      fill="#FDDD4C"/>
    <path
      d="M9.86884 19.6502C9.56272 19.1867 10.3327 18.4853 10.0195 17.8963C9.83897 17.5567 9.54389 17.345 9.18952 17.3006C8.84941 17.2579 8.49905 17.3824 8.27573 17.6257C7.92315 18.0094 7.86832 18.5317 7.93652 18.7165C7.96148 18.7842 8.00071 18.8027 8.02879 18.8067C8.22083 18.832 8.32889 18.3391 8.39519 18.2364C8.57851 17.9535 8.99476 17.8679 9.28223 18.0538C9.82731 18.4064 9.35467 18.9762 9.39545 19.4574C9.43513 19.926 9.72709 20.1144 9.98919 20.1342C10.2442 20.1438 10.4225 20.0022 10.4675 19.8988C10.5754 19.6519 10.1207 20.0315 9.86884 19.6502Z"
      fill="#000000"/>
    <path
      d="M21.2577 15.3958C21.1147 15.3761 20.9585 15.3765 20.7959 15.3958C20.6725 15.2401 20.5619 14.9879 20.4995 14.6936C20.3885 14.17 20.4001 13.7907 20.7099 13.7414C21.0197 13.6922 21.1694 14.009 21.2804 14.5326C21.3549 14.8846 21.3406 15.208 21.2577 15.3958Z"
      fill="#000000"/>
    <path
      d="M17.8646 15.7074C17.8769 15.8259 17.8812 15.9459 17.8777 16.0564C18.1775 16.074 18.3898 16.2163 18.4463 16.3067C18.4753 16.3533 18.4637 16.3837 18.4544 16.3977C18.4233 16.446 18.3568 16.4386 18.2175 16.4229C18.0958 16.4093 17.9648 16.3973 17.8286 16.4035C17.7545 16.6308 17.5348 16.6521 17.3804 16.484C17.2726 16.5168 17.0608 16.6521 16.9976 16.5051C16.9971 16.4322 17.0734 16.3261 17.2115 16.2325C17.1172 16.0526 17.054 15.8601 17.0167 15.6607C16.8209 15.696 16.6447 15.7508 16.5066 15.7938C16.4418 15.814 16.1853 15.9299 16.1552 15.7993C16.1351 15.7091 16.2755 15.5604 16.424 15.453C16.5898 15.3353 16.7738 15.2516 16.9646 15.2033C16.9605 14.9193 17.0329 14.7211 17.2393 14.6883C17.4951 14.6476 17.6537 14.8446 17.7634 15.2093C18.0726 15.2952 18.3814 15.5082 18.5177 15.7284C18.5707 15.8138 18.581 15.8798 18.5466 15.9146C18.4609 16.0034 17.9862 15.7459 17.8646 15.7074Z"
      fill="#000000"/>
    <path
      d="M19.8977 16.9838C20.0938 17.0788 20.3096 17.0414 20.38 16.9002C20.4504 16.7589 20.3484 16.5675 20.1522 16.4725C19.9561 16.3775 19.7404 16.4149 19.6699 16.5561C19.5995 16.6973 19.7016 16.8887 19.8977 16.9838Z"
      fill="#000000"/>
    <path
      d="M20.8632 16.2824C20.8667 16.0664 20.9991 15.8939 21.1583 15.8965C21.3174 15.8996 21.4435 16.0765 21.44 16.2921C21.4364 16.5077 21.304 16.6802 21.1449 16.6775C20.9857 16.6749 20.8596 16.498 20.8632 16.2824Z"
      fill="#000000"/>
    <path fill-rule="evenodd" clip-rule="evenodd"
          d="M25.1785 18.9281C25.1816 18.9392 25.1772 18.9236 25.1785 18.9281C25.4981 18.9281 26 19.2907 26 20.1667C26 21.0384 25.6336 22.0257 25.5471 22.2449C24.2273 25.3671 21.0772 27.1051 17.3248 26.9951C13.8266 26.8926 10.8432 25.0705 9.53762 22.1001C8.7482 22.101 7.93426 21.7582 7.31556 21.217C6.66343 20.6468 6.26137 19.9089 6.18292 19.1393C6.12185 18.5401 6.19629 17.9826 6.38662 17.4964L5.65337 16.883C2.29777 14.0864 12.7929 2.57165 16.1494 5.46156C16.1663 5.47608 17.2914 6.56551 17.2941 6.56815C18.9125 5.88985 23.2489 4.5984 23.2537 7.60479C23.2555 8.60315 22.611 9.76738 21.5782 10.8238C22.7718 11.9164 22.457 13.4685 22.6471 14.8925L23.0616 15.006C23.8519 15.2247 24.414 15.5164 24.6891 15.8015C24.9641 16.0862 25.1005 16.3621 25.15 16.6855C25.1963 16.9464 25.1901 17.4071 24.8415 17.9223C24.967 18.2547 25.0816 18.5861 25.1785 18.9281ZM9.47834 21.2901C9.59557 21.2927 9.71191 21.2852 9.82602 21.2659C11.0523 21.0595 11.3732 19.7448 11.1713 18.4538C10.9431 16.9961 9.94414 16.4822 9.26616 16.4457C9.07761 16.436 8.90243 16.4527 8.75801 16.4813C7.5478 16.722 6.86447 17.7384 6.99908 19.0584C7.12077 20.253 8.3448 21.2601 9.47834 21.2901ZM6.73743 16.8395C7.14351 16.2574 7.80722 15.8363 8.56054 15.6915C9.51934 13.151 11.1205 10.8102 13.2396 9.19934C14.8122 7.90443 16.5082 6.97559 16.5082 6.97559C16.5082 6.97559 15.5949 5.93016 15.319 5.85316C13.622 5.40084 9.95707 7.89563 7.61689 11.1921C6.67012 12.5257 5.3146 14.8876 5.96272 16.1025C6.04251 16.253 6.49494 16.6397 6.73743 16.8395ZM20.4955 20.7066C20.4981 20.7339 20.4812 20.7621 20.4567 20.7722C20.4567 20.7722 19.0931 21.3983 16.9272 20.737C17.0051 21.3862 17.7924 21.6322 18.3425 21.7213C21.0263 22.1771 23.5355 20.6622 24.1002 20.2807C24.1972 20.2152 24.099 20.3836 24.0815 20.4083C23.3901 21.2887 21.5314 22.3082 19.1132 22.3078C18.0585 22.3073 17.0044 21.9408 16.6174 21.3772C16.017 20.5029 16.5876 19.2265 17.5883 19.3593C19.2798 19.5479 21.0139 19.4062 22.5798 18.6888C23.9451 18.0631 24.4608 17.375 24.3833 16.8175C24.263 15.9535 22.9821 15.8184 22.3346 15.6084C22.0529 15.5164 21.9138 15.4429 21.8822 14.9198C21.8684 14.6914 21.8282 13.8946 21.8135 13.565C21.7877 12.9882 21.7172 12.1993 21.2216 11.8737C21.0923 11.7887 20.9488 11.7478 20.7977 11.7399C20.6772 11.7341 20.6057 11.7507 20.5673 11.7596C20.5587 11.7616 20.5517 11.7632 20.5463 11.7641C20.2786 11.809 20.1146 11.9444 19.9212 12.1041C19.9101 12.1133 19.8988 12.1226 19.8875 12.1319C19.2692 12.6406 18.7472 12.7237 18.1664 12.6991C17.9855 12.6915 17.7991 12.6735 17.6024 12.6544C17.4215 12.6369 17.232 12.6185 17.0302 12.6067L16.7837 12.5926C15.8111 12.5433 14.768 13.3723 14.5946 14.5497C14.4009 15.864 15.1355 16.669 15.6132 17.1925C15.7313 17.3219 15.8337 17.434 15.9025 17.5325C15.9466 17.5919 15.9979 17.6755 15.9979 17.7551C15.9979 17.8502 15.9354 17.9254 15.8744 17.9896C14.8821 18.9968 14.5648 20.5971 14.9388 21.9307C14.9856 22.097 15.0448 22.2563 15.1148 22.4085C15.9921 24.4321 18.7138 25.3746 21.3722 24.5174C23.2354 23.9167 24.8816 22.465 25.2168 20.4624C25.2966 19.9406 25.1794 19.7391 25.0198 19.6418C24.8509 19.5393 24.6485 19.5749 24.6485 19.5749C24.6485 19.5749 24.5562 18.9515 24.295 18.3848C23.5199 18.9884 22.5223 19.4126 21.7627 19.6277C20.5458 19.9724 19.2312 20.1065 17.9737 19.944C17.4636 19.8781 17.1209 19.8338 16.974 20.3049C18.6514 20.9112 20.4268 20.6516 20.4268 20.6516C20.4611 20.6481 20.4919 20.6727 20.4955 20.7066ZM15.656 8.94062C14.7386 9.40394 13.7143 10.2289 12.8825 11.178C12.8531 11.2119 12.8968 11.2585 12.9329 11.2326C13.6514 10.7165 14.6365 10.2369 15.927 9.92622C17.3725 9.57818 18.7642 9.72426 19.6142 9.91654C19.657 9.92622 19.6837 9.85362 19.6459 9.8325C19.0842 9.52142 18.2221 9.31022 17.6106 9.30582C17.5807 9.30538 17.5638 9.27106 17.5816 9.2473C17.6872 9.10694 17.8321 8.96834 17.9645 8.86802C17.9939 8.84514 17.9761 8.79807 17.9386 8.80026C17.1779 8.84638 15.4402 9.63869 15.4465 9.60986C15.491 9.39866 15.6314 9.1197 15.7041 8.98946C15.7215 8.95866 15.6876 8.92478 15.656 8.94062Z"
          fill="#000000"/>
  </symbol>

  <symbol id="medium" viewBox="0 0 512 512">
    <rect
      width="512" height="512"
      rx="15%"
      fill="#12100e"/>
    <path fill="#ffffff"
          d="M125 173c0-4-2-9-5-11l-31-38v-6h98l75 166 67-166h93v6l-27 26c-2 1-3 4-3 7v190c0 3 1 6 3 8l27 25v6H289v-6l27-26c3-3 3-4 3-8V193l-76 192h-10l-88-192v129c-1 5 1 11 5 15l35 43v5H85v-5l35-43c4-4 6-10 5-15z"/>
  </symbol>

  <symbol id="onenote" viewBox="0 0 32 32">
    <path d="M8 23H32V28C32 29.1046 31.1046 30 30 30H10C8.89543 30 8 29.1046 8 28V23Z" fill="#5D29A1"/>
    <rect x="8" y="16" width="24" height="7" fill="#7F32CC"/>
    <rect x="8" y="9" width="24" height="7" fill="#9A40D6"/>
    <path d="M10 2C8.89543 2 8 2.89543 8 4V28C8 29.1046 8.89543 30 10 30H24V9H32V4C32 2.89543 31.1046 2 30 2H10Z"
          fill="url(#paint0_linear_87_7733)"/>
    <path d="M8 12C8 10.3431 9.34315 9 11 9H17C18.6569 9 20 10.3431 20 12V24C20 25.6569 18.6569 27 17 27H8V12Z"
          fill="#000000" fill-opacity="0.3"/>
    <rect y="7" width="18" height="18" rx="2" fill="url(#paint1_linear_87_7733)"/>
    <path d="M13 21V11H10.8893V16.8286L6.9631 11H5V21H7.08118V14.9571L11.155 21H13Z" fill="white"/>
    <defs>
      <linearGradient id="paint0_linear_87_7733" x1="8" y1="16" x2="24.5" y2="16" gradientUnits="userSpaceOnUse">
        <stop stop-color="#8C42AC"/>
        <stop offset="1" stop-color="#C36DEF"/>
      </linearGradient>
      <linearGradient id="paint1_linear_87_7733" x1="0" y1="16" x2="19" y2="16" gradientUnits="userSpaceOnUse">
        <stop stop-color="#44176C"/>
        <stop offset="1" stop-color="#621F9C"/>
      </linearGradient>
    </defs>
  </symbol>

  <symbol id="reddit" viewBox="0 -4 48 48">
    <g id="Icons" stroke="none" stroke-width="1" fill="none" fill-rule="evenodd">
      <g id="Color-" transform="translate(-800.000000, -566.000000)" fill="#FF5700">
        <path
          d="M831.14,592.325803 C829.346,592.325803 827.8385,590.884067 827.8385,589.106421 C827.8385,587.328775 829.346,585.839477 831.14,585.839477 C832.934,585.839477 834.389,587.328775 834.389,589.106421 C834.389,590.884067 832.934,592.325803 831.14,592.325803 M831.902,598.574316 C830.231,600.228597 827.654,601.032699 824.024,601.032699 C824.0165,601.032699 824.0075,601.031213 823.9985,601.031213 C823.991,601.031213 823.982,601.032699 823.973,601.032699 C820.343,601.032699 817.7675,600.228597 816.098,598.574316 C815.585,598.065993 815.585,597.244055 816.098,596.737218 C816.6095,596.23038 817.439,596.23038 817.952,596.737218 C819.104,597.878716 821.0735,598.434602 823.973,598.434602 C823.982,598.434602 823.991,598.436088 823.9985,598.436088 C824.0075,598.436088 824.0165,598.434602 824.024,598.434602 C826.9235,598.434602 828.8945,597.878716 830.048,596.737218 C830.561,596.228894 831.3905,596.23038 831.902,596.737218 C832.4135,597.245541 832.4135,598.067479 831.902,598.574316 M813.611,589.106421 C813.611,587.330262 815.1155,585.839477 816.908,585.839477 C818.702,585.839477 820.157,587.330262 820.157,589.106421 C820.157,590.884067 818.702,592.325803 816.908,592.325803 C815.1155,592.325803 813.611,590.884067 813.611,589.106421 M839.996,568.598098 C841.211,568.598098 842.1995,569.577586 842.1995,570.780024 C842.1995,571.983948 841.211,572.963436 839.996,572.963436 C838.781,572.963436 837.7925,571.983948 837.7925,570.780024 C837.7925,569.577586 838.781,568.598098 839.996,568.598098 M848,585.570452 C848,582.417955 845.4125,579.854043 842.231,579.854043 C840.854,579.854043 839.5895,580.335612 838.5965,581.136742 C835.079,578.945898 830.615,577.62604 825.83,577.346611 L828.326,569.527051 L835.1855,571.127824 C835.3655,573.602556 837.4535,575.561534 839.996,575.561534 C842.6555,575.561534 844.82,573.416766 844.82,570.780024 C844.82,568.144768 842.6555,566 839.996,566 C838.136,566 836.519,567.049346 835.7135,568.581748 L827.7425,566.722354 C827.075,566.56629 826.4,566.94679 826.193,567.594828 L823.094,577.300535 C817.9385,577.425386 813.092,578.749703 809.3165,581.068371 C808.337,580.308859 807.1055,579.854043 805.769,579.854043 C802.5875,579.854043 800,582.417955 800,585.570452 C800,587.519025 800.99,589.241677 802.4975,590.273187 C802.4345,590.726516 802.4015,591.182818 802.4015,591.645065 C802.4015,595.585315 804.713,599.250595 808.91,601.964625 C812.933,604.567182 818.258,606 823.9025,606 C829.547,606 834.872,604.567182 838.895,601.964625 C843.092,599.250595 845.4035,595.585315 845.4035,591.645065 C845.4035,591.224435 845.375,590.806778 845.3225,590.392093 C846.9305,589.376932 848,587.594828 848,585.570452"
          id="Reddit"/>
      </g>
    </g>
  </symbol>

  <symbol id="pinterest" viewBox="0 0 32 32">
    <circle cx="16" cy="16" r="14" fill="white"/>
    <path
      d="M16 30C23.732 30 30 23.732 30 16C30 8.26801 23.732 2 16 2C8.26801 2 2 8.26801 2 16C2 21.6801 5.38269 26.5702 10.2435 28.7655C10.25 28.6141 10.2573 28.4752 10.2636 28.3561C10.2722 28.1938 10.2788 28.0682 10.2788 27.9976C10.2788 27.5769 10.5649 25.4904 10.5649 25.4904L12.3149 18.3053C12.0457 17.8678 11.8438 16.9423 11.8438 16.2356C11.8438 12.9711 13.6611 12.2644 14.7716 12.2644C16.1851 12.2644 16.5048 13.7957 16.5048 14.9231C16.5048 15.5194 16.1955 16.4528 15.8772 17.4134C15.5398 18.4314 15.1923 19.4799 15.1923 20.1899C15.1923 21.5697 16.5553 22.2596 17.4976 22.2596C19.988 22.2596 22.2764 19.1298 22.2764 16C22.2764 12.8702 20.8125 9.08412 16.0168 9.08412C11.2212 9.08412 9.06731 12.7356 9.06731 15.5288C9.06731 17.4134 9.77404 18.7933 10.1274 19.0288C10.2284 19.1186 10.4 19.3957 10.2788 19.786C10.1577 20.1764 9.9367 21.0481 9.84135 21.4351C9.83013 21.5248 9.72356 21.6774 9.38702 21.5697C8.96635 21.4351 6.29087 19.7524 6.29087 15.5288C6.29087 11.3053 9.60577 6.39182 16.0168 6.39182C22.4279 6.39182 25.7091 10.6995 25.7091 16C25.7091 21.3005 21.4183 24.6827 18.1538 24.6827C15.5423 24.6827 14.5192 23.516 14.3341 22.9327L13.3413 26.7187C13.1069 27.3468 12.6696 28.4757 12.1304 29.4583C13.3594 29.8111 14.6576 30 16 30Z"
      fill="#BB0F23"/>
  </symbol>

  <symbol id="quora" viewBox="0 0 16 16">
    <path
      fill="#B92B27"
      d="M8.73 12.476c-.554-1.091-1.204-2.193-2.473-2.193-.242 0-.484.04-.707.142l-.43-.863c.525-.45 1.373-.808 2.464-.808 1.697 0 2.568.818 3.26 1.86.41-.89.605-2.093.605-3.584 0-3.724-1.165-5.636-3.885-5.636-2.68 0-3.839 1.912-3.839 5.636 0 3.704 1.159 5.596 3.84 5.596.425 0 .811-.046 1.166-.15Zm.665 1.3a7 7 0 0 1-1.83.244C3.994 14.02.5 11.172.5 7.03.5 2.849 3.995 0 7.564 0c3.63 0 7.09 2.828 7.09 7.03 0 2.337-1.09 4.236-2.675 5.464.512.767 1.04 1.277 1.773 1.277.802 0 1.125-.62 1.179-1.105h1.043c.061.647-.262 3.334-3.178 3.334-1.767 0-2.7-1.024-3.4-2.224Z"/>
  </symbol>

  <symbol id="sketch" viewBox="0 0 32 32">
    <path fill="currentColor" fill-rule='evenodd'
          d='m16.212 1.012 8.332.955c.45.046.86.276 1.135.636l6.05 8.072c.38.496.358 1.19-.05 1.662L16.993 29.546a1.31 1.31 0 0 1-1.986 0L.321 12.337a1.32 1.32 0 0 1-.05-1.662l6.05-8.072a1.64 1.64 0 0 1 1.135-.636l8.367-.959a2 2 0 0 1 .389.004m1.982 2.209c-.185-.18-.441.07-.293.255l4.263 5.672a.489.489 0 0 1-.39.783H10.226a.489.489 0 0 1-.39-.783L14.1 3.476c.148-.186-.108-.435-.293-.255l-5.88 6.184c-.283.293-.816.093-.81-.33L7.08 4.977c-.003-.238-.324-.267-.38-.034l-.974 4.84a.92.92 0 0 1-.7.668l-2.885.804c-.227.054-.193.385.036.386h2.826c.493 0 .793.344.893.52l.012.023 7.405 12.953c.153.26.575.06.438-.226L7.963 12.615a.682.682 0 0 1 .608-.975h14.857c.483 0 .83.52.609.975L18.249 24.91c-.136.286.286.487.439.226l7.404-12.953.013-.024c.1-.175.4-.519.893-.519h2.826c.229-.001.262-.332.035-.386l-2.885-.804a.92.92 0 0 1-.7-.667l-.973-4.841c-.057-.238-.392-.202-.38.05l-.038 4.082c.006.423-.526.623-.809.33z'/>
  </symbol>

  <symbol id="snapchat" viewBox="0 0 32 32">
    <circle cx="16" cy="16" r="14" fill="#FFFA37"/>
    <path fill-rule="evenodd" clip-rule="evenodd"
          d="M21.0255 8.18551C20.0601 6.96879 18.4673 6 16.0118 6C13.9091 6.02071 9.70378 7.18445 9.70378 11.6738C9.70378 12.3294 9.75568 13.2075 9.80103 13.8541C9.74758 13.8386 9.68188 13.8095 9.57775 13.7596L9.56328 13.7527C9.37915 13.6643 9.09918 13.5298 8.7098 13.5298C8.31645 13.5298 7.93611 13.6839 7.65375 13.9124C7.37309 14.1394 7.13333 14.4885 7.13333 14.9105C7.13333 15.4384 7.43041 15.7888 7.77778 16.0135C8.08632 16.2131 8.47538 16.3406 8.78337 16.4415L8.81382 16.4514C9.14349 16.5596 9.3851 16.642 9.55169 16.7458C9.68136 16.8267 9.70104 16.8778 9.70348 16.9264C9.70179 16.9333 9.69782 16.9482 9.68919 16.9724C9.67141 17.0224 9.64184 17.0899 9.59862 17.1743C9.5124 17.3427 9.38667 17.5498 9.23711 17.7706C8.93539 18.2161 8.56717 18.673 8.29212 18.9376C8.02082 19.1986 7.57562 19.5229 7.11016 19.7811C6.87933 19.9091 6.6536 20.0152 6.45167 20.0881C6.24322 20.1633 6.09047 20.192 5.99608 20.192C5.92136 20.192 5.85669 20.2073 5.82847 20.2144C5.7888 20.2243 5.74774 20.2374 5.70713 20.2527C5.62657 20.2829 5.53056 20.3283 5.43546 20.3923C5.25377 20.5146 5 20.7612 5 21.1502C5 21.3532 5.04766 21.5251 5.13005 21.6742C5.20217 21.8047 5.29487 21.9038 5.34823 21.9608L5.35615 21.9692L5.37091 21.9851C5.66435 22.3008 6.15008 22.5205 6.62162 22.6712C7.02679 22.8007 7.4798 22.8972 7.92122 22.9551C7.92745 22.9836 7.93397 23.0142 7.9411 23.0478L7.9434 23.0587C7.97119 23.1897 8.008 23.3633 8.06221 23.5234C8.11336 23.6744 8.20599 23.8977 8.39564 24.0568C8.63717 24.2593 8.95308 24.2798 9.1592 24.279C9.38047 24.2781 9.63881 24.2469 9.88394 24.2174L9.90481 24.2149C10.2497 24.1733 10.6106 24.1304 10.9843 24.1304C11.6663 24.1304 12.1035 24.4153 12.7894 24.8837L12.794 24.8869C13.0316 25.0492 13.2976 25.2308 13.6 25.4095C14.6122 26.0076 15.4346 26.0025 15.9007 25.9995C15.9315 25.9993 15.9606 25.9992 15.9882 25.9992C16.0158 25.9992 16.0452 25.9993 16.0761 25.9995C16.543 26.0025 17.3873 26.0079 18.4 25.4095C18.7024 25.2308 18.9684 25.0492 19.2059 24.8869L19.2106 24.8837C19.8965 24.4153 20.3337 24.1304 21.0157 24.1304C21.3894 24.1304 21.7503 24.1733 22.0952 24.2149L22.1161 24.2174C22.3612 24.2469 22.6195 24.2781 22.8408 24.279C23.0469 24.2798 23.3628 24.2593 23.6044 24.0568C23.794 23.8977 23.8866 23.6744 23.9378 23.5234C23.992 23.3634 24.0288 23.1898 24.0566 23.0587L24.0589 23.0478C24.066 23.0142 24.0725 22.9836 24.0788 22.9551C24.5202 22.8972 24.9732 22.8007 25.3784 22.6712C25.8499 22.5205 26.3357 22.3007 26.6291 21.985L26.6439 21.9692L26.6517 21.9608C26.7051 21.9038 26.7978 21.8047 26.8699 21.6742C26.9523 21.5251 27 21.3532 27 21.1502C27 20.7612 26.7462 20.5146 26.5645 20.3923C26.4694 20.3283 26.3734 20.2829 26.2929 20.2527C26.2523 20.2374 26.2112 20.2243 26.1715 20.2144C26.1433 20.2073 26.0786 20.192 26.0039 20.192C25.9095 20.192 25.7568 20.1633 25.5483 20.0881C25.3464 20.0152 25.1207 19.9091 24.8898 19.7811C24.4244 19.5229 23.9792 19.1986 23.7079 18.9376C23.4328 18.673 23.0646 18.2161 22.7629 17.7706C22.6133 17.5498 22.4876 17.3427 22.4014 17.1743C22.3582 17.0899 22.3286 17.0224 22.3108 16.9724C22.3022 16.9482 22.2982 16.9333 22.2965 16.9264C22.299 16.8778 22.3186 16.8267 22.4483 16.7458C22.6149 16.642 22.8565 16.5596 23.1862 16.4514L23.2166 16.4415C23.5246 16.3406 23.9137 16.2131 24.2222 16.0135C24.5696 15.7888 24.8667 15.4384 24.8667 14.9105C24.8667 14.4885 24.6269 14.1394 24.3462 13.9124C24.0639 13.6839 23.6835 13.5298 23.2902 13.5298C22.9008 13.5298 22.6209 13.6643 22.4367 13.7527L22.4223 13.7596C22.3181 13.8095 22.2524 13.8386 22.199 13.8541C22.2443 13.2075 22.2962 12.3294 22.2962 11.6738C22.2962 10.7837 21.9726 9.37904 21.0255 8.18551ZM11.7832 8.77274C10.9822 9.77549 10.7077 10.9662 10.7077 11.6738C10.7077 12.3299 10.7633 13.2413 10.8102 13.8949C10.8258 14.1119 10.7813 14.365 10.5917 14.5658C10.3998 14.7691 10.1388 14.8351 9.90561 14.8351C9.56889 14.8351 9.3128 14.7119 9.14898 14.6331L9.12996 14.624C8.94718 14.5363 8.85108 14.4956 8.7098 14.4956C8.58128 14.4956 8.42437 14.5508 8.29994 14.6515C8.17382 14.7535 8.13725 14.8534 8.13725 14.9105C8.13725 15.0269 8.18018 15.1101 8.33794 15.2121C8.52427 15.3326 8.78976 15.4232 9.13779 15.5374L9.16809 15.5473C9.45712 15.642 9.81511 15.7593 10.0976 15.9354C10.4147 16.133 10.7077 16.4507 10.7077 16.9401C10.7077 17.0684 10.6722 17.1919 10.6389 17.2854C10.6028 17.3869 10.554 17.4941 10.4992 17.601C10.3896 17.8152 10.2413 18.0571 10.0783 18.2978C9.75483 18.7754 9.3437 19.2918 9.002 19.6205C8.65655 19.9528 8.13703 20.3263 7.61159 20.6178C7.34696 20.7645 7.07068 20.8961 6.80428 20.9923C6.56581 21.0783 6.3088 21.1457 6.06224 21.1563C6.0561 21.1589 6.04931 21.162 6.0422 21.1655C6.03083 21.1713 6.0202 21.1774 6.01092 21.1837L6.00618 21.187C6.00711 21.1936 6.00817 21.1985 6.00906 21.202C6.01103 21.2097 6.01337 21.2152 6.01652 21.2209C6.02619 21.2384 6.04143 21.2579 6.1031 21.324L6.11928 21.3413C6.23038 21.4609 6.50416 21.616 6.93815 21.7547C7.35148 21.8868 7.84023 21.9822 8.30201 22.026C8.53305 22.0479 8.66621 22.1923 8.72257 22.2701C8.78059 22.3501 8.81377 22.4347 8.83316 22.4908C8.87067 22.5994 8.899 22.7332 8.92135 22.8387L8.92474 22.8547C8.95525 22.9985 8.98194 23.1215 9.01675 23.2242C9.02905 23.2606 9.0404 23.2882 9.05017 23.3085C9.0722 23.3111 9.10599 23.3135 9.15493 23.3133C9.36726 23.3124 9.57984 23.2808 9.79022 23.2554C10.1268 23.2148 10.5433 23.1646 10.9843 23.1646C12.0071 23.1646 12.682 23.6258 13.334 24.0713L13.3706 24.0963C13.6118 24.261 13.8536 24.4259 14.1255 24.5866C14.8917 25.0394 15.4747 25.0361 15.9007 25.0337C15.9306 25.0336 15.9598 25.0334 15.9882 25.0334C16.0164 25.0334 16.0454 25.0336 16.0753 25.0337C16.5059 25.036 17.1085 25.0393 17.8745 24.5866C18.1464 24.4259 18.3882 24.261 18.6294 24.0963L18.666 24.0713C19.318 23.6258 19.9929 23.1646 21.0157 23.1646C21.4567 23.1646 21.8732 23.2148 22.2098 23.2554L22.2199 23.2566C22.4921 23.2894 22.6913 23.3126 22.8451 23.3133C22.894 23.3135 22.9278 23.3111 22.9498 23.3085C22.9596 23.2882 22.9709 23.2606 22.9833 23.2242C23.0181 23.1215 23.0447 22.9985 23.0753 22.8547L23.0787 22.8387C23.101 22.7331 23.1293 22.5994 23.1668 22.4908C23.1862 22.4347 23.2194 22.3501 23.2774 22.2701C23.3338 22.1923 23.467 22.0479 23.698 22.026C24.1598 21.9822 24.6485 21.8868 25.0618 21.7547C25.4958 21.616 25.7696 21.4609 25.8807 21.3414L25.8969 21.324C25.9585 21.2579 25.9738 21.2384 25.9835 21.2209C25.9866 21.2152 25.989 21.2097 25.9909 21.202C25.9918 21.1985 25.9929 21.1936 25.9938 21.187L25.9891 21.1837C25.9798 21.1774 25.9692 21.1713 25.9578 21.1655C25.9507 21.1619 25.9439 21.1589 25.9378 21.1563C25.6912 21.1457 25.4342 21.0783 25.1957 20.9923C24.9293 20.8961 24.653 20.7645 24.3884 20.6178C23.863 20.3263 23.3435 19.9528 22.998 19.6205C22.6563 19.2918 22.2452 18.7754 21.9217 18.2978C21.7587 18.0571 21.6104 17.8152 21.5008 17.601C21.446 17.4941 21.3972 17.3869 21.3611 17.2854C21.3278 17.1919 21.2923 17.0684 21.2923 16.9401C21.2923 16.4507 21.5853 16.133 21.9024 15.9354C22.1849 15.7593 22.5429 15.642 22.8319 15.5473L22.8622 15.5374C23.2102 15.4232 23.4757 15.3326 23.6621 15.2121C23.8198 15.1101 23.8627 15.0269 23.8627 14.9105C23.8627 14.8534 23.8262 14.7535 23.7001 14.6515C23.5756 14.5508 23.4187 14.4956 23.2902 14.4956C23.1489 14.4956 23.0528 14.5363 22.87 14.624L22.851 14.6331C22.6872 14.7119 22.4311 14.8351 22.0944 14.8351C21.8612 14.8351 21.6002 14.7691 21.4083 14.5658C21.2187 14.365 21.1742 14.1119 21.1898 13.8949C21.2367 13.2413 21.2923 12.3299 21.2923 11.6738C21.2923 10.9643 21.0227 9.77352 20.2275 8.77149C19.4508 7.79264 18.1523 6.96575 16.0118 6.96575C13.871 6.96575 12.566 7.79288 11.7832 8.77274Z"
          fill="#000000"/>
    <path fill-rule="evenodd" clip-rule="evenodd"
          d="M11.7829 8.77281C10.9818 9.77556 10.7074 10.9662 10.7074 11.6738C10.7074 12.3299 10.763 13.2414 10.8099 13.895C10.8254 14.112 10.7809 14.365 10.5914 14.5659C10.3995 14.7692 10.1385 14.8352 9.90529 14.8352C9.56858 14.8352 9.31249 14.712 9.14866 14.6332L9.12964 14.624C8.94686 14.5364 8.85077 14.4956 8.70949 14.4956C8.58097 14.4956 8.42405 14.5509 8.29963 14.6515C8.1735 14.7536 8.13694 14.8535 8.13694 14.9106C8.13694 15.027 8.17987 15.1101 8.33763 15.2122C8.52395 15.3327 8.78944 15.4233 9.13748 15.5374L9.16778 15.5474C9.4568 15.6421 9.81479 15.7593 10.0973 15.9354C10.4144 16.1331 10.7074 16.4508 10.7074 16.9402C10.7074 17.0685 10.6719 17.192 10.6386 17.2855C10.6025 17.387 10.5536 17.4942 10.4989 17.6011C10.3893 17.8153 10.241 18.0572 10.0779 18.2979C9.75451 18.7754 9.34339 19.2918 9.00168 19.6206C8.65623 19.9529 8.13672 20.3264 7.61127 20.6178C7.34664 20.7646 7.07037 20.8962 6.80396 20.9923C6.56549 21.0784 6.30848 21.1458 6.06192 21.1563C6.05578 21.1589 6.04899 21.162 6.04188 21.1656C6.03051 21.1713 6.01988 21.1775 6.01061 21.1837L6.00586 21.187C6.00679 21.1937 6.00785 21.1986 6.00874 21.2021C6.01071 21.2098 6.01305 21.2153 6.01621 21.221C6.02587 21.2385 6.04112 21.258 6.10279 21.3241L6.11897 21.3414C6.23006 21.4609 6.50385 21.616 6.93783 21.7548C7.35116 21.8869 7.83992 21.9823 8.30169 22.0261C8.53273 22.048 8.6659 22.1924 8.72226 22.2701C8.78027 22.3502 8.81345 22.4348 8.83284 22.4909C8.87035 22.5995 8.89868 22.7332 8.92103 22.8387L8.92443 22.8548C8.95494 22.9986 8.98162 23.1215 9.01643 23.2243C9.02873 23.2606 9.04009 23.2883 9.04986 23.3086C9.07189 23.3111 9.10567 23.3135 9.15461 23.3133C9.36694 23.3125 9.57952 23.2808 9.7899 23.2555C10.1265 23.2149 10.543 23.1647 10.984 23.1647C12.0068 23.1647 12.6817 23.6259 13.3336 24.0713L13.3702 24.0963C13.6115 24.2611 13.8533 24.426 14.1252 24.5867C14.8914 25.0395 15.4744 25.0362 15.9003 25.0338C15.9303 25.0336 15.9595 25.0335 15.9879 25.0335C16.0161 25.0335 16.0451 25.0336 16.075 25.0338C16.5056 25.0361 17.1081 25.0394 17.8742 24.5867C18.1461 24.426 18.3879 24.2611 18.6291 24.0963L18.6657 24.0713C19.3177 23.6259 19.9926 23.1647 21.0154 23.1647C21.4564 23.1647 21.8729 23.2149 22.2095 23.2555L22.2196 23.2567C22.4918 23.2895 22.691 23.3127 22.8448 23.3133C22.8937 23.3135 22.9275 23.3111 22.9495 23.3086C22.9593 23.2883 22.9706 23.2606 22.9829 23.2243C23.0177 23.1215 23.0444 22.9986 23.0749 22.8548L23.0783 22.8387C23.1007 22.7332 23.129 22.5995 23.1665 22.4909C23.1859 22.4347 23.2191 22.3502 23.2771 22.2701C23.3335 22.1923 23.4666 22.048 23.6977 22.0261C24.1595 21.9823 24.6482 21.8869 25.0615 21.7548C25.4955 21.616 25.7693 21.461 25.8804 21.3414L25.8966 21.3241C25.9582 21.258 25.9735 21.2385 25.9832 21.221C25.9863 21.2153 25.9887 21.2098 25.9906 21.2021C25.9915 21.1986 25.9926 21.1937 25.9935 21.187L25.9888 21.1837C25.9795 21.1775 25.9689 21.1713 25.9575 21.1656C25.9504 21.162 25.9436 21.1589 25.9374 21.1563C25.6909 21.1458 25.4339 21.0784 25.1954 20.9923C24.929 20.8962 24.6527 20.7646 24.3881 20.6178C23.8626 20.3264 23.3431 19.9529 22.9977 19.6206C22.656 19.2918 22.2449 18.7754 21.9214 18.2979C21.7584 18.0572 21.6101 17.8153 21.5004 17.6011C21.4457 17.4942 21.3969 17.387 21.3607 17.2855C21.3275 17.192 21.292 17.0685 21.292 16.9402C21.292 16.4508 21.585 16.1331 21.9021 15.9354C22.1846 15.7593 22.5426 15.6421 22.8316 15.5474L22.8619 15.5374C23.2099 15.4233 23.4754 15.3327 23.6617 15.2122C23.8195 15.1101 23.8624 15.027 23.8624 14.9106C23.8624 14.8535 23.8259 14.7536 23.6997 14.6515C23.5753 14.5509 23.4184 14.4956 23.2899 14.4956C23.1486 14.4956 23.0525 14.5364 22.8697 14.624L22.8507 14.6332C22.6869 14.712 22.4308 14.8352 22.0941 14.8352C21.8609 14.8352 21.5999 14.7692 21.408 14.5659C21.2184 14.365 21.1739 14.112 21.1895 13.895C21.2364 13.2414 21.292 12.3299 21.292 11.6738C21.292 10.9644 21.0224 9.7736 20.2272 8.77157C19.4505 7.79271 18.152 6.96582 16.0114 6.96582C13.8706 6.96582 12.5657 7.79296 11.7829 8.77281Z"
          fill="white"/>
  </symbol>
  <symbol id="snapchat0" viewBox="0 -1.5 48 48">
    <g id="Icons" stroke="none" stroke-width="1" fill="none" fill-rule="evenodd">
      <g id="Color-" transform="translate(-201.000000, -262.000000)" fill="#FFE400">
        <path
          d="M225.46152,262 L225.459405,262 C225.417982,262 225.379046,262 225.341977,262.000496 C225.046416,262.003473 224.560531,262.008186 224.516869,262.008682 C223.451307,262.008682 221.319312,262.158762 219.029211,263.166653 C217.719836,263.742538 216.54207,264.521217 215.528753,265.481107 C214.320635,266.624814 213.336427,268.034944 212.603992,269.672923 C211.53134,272.071222 211.785975,276.11085 211.990479,279.357162 L211.991226,279.362248 C212.013119,279.709912 212.036132,280.072956 212.057155,280.426698 C211.899796,280.498761 211.644663,280.574793 211.268619,280.574793 C210.663564,280.574793 209.944067,280.381922 209.130653,280.001885 C208.891318,279.890752 208.618148,279.834565 208.31674,279.834565 C207.832473,279.834565 207.321958,279.976707 206.879114,280.236307 C206.321952,280.562514 205.961954,281.023544 205.86418,281.534684 C205.799744,281.872797 205.802854,282.541087 206.547354,283.218802 C206.956861,283.591893 207.558432,283.93596 208.334902,284.24195 C208.53866,284.321951 208.780482,284.398355 209.03661,284.479349 C209.925408,284.761027 211.270609,285.186584 211.621401,286.00979 C211.799161,286.427161 211.722658,286.976379 211.39463,287.640203 C211.386047,287.658311 211.377464,287.676048 211.369627,287.694653 C211.287651,287.88554 210.522874,289.612822 208.954137,291.434493 C208.062727,292.470415 207.080882,293.336165 206.037462,294.008423 C204.763912,294.829149 203.385871,295.365715 201.942026,295.602866 C201.375036,295.695643 200.970132,296.19934 201.001729,296.771752 C201.011431,296.936716 201.050242,297.101183 201.11754,297.260317 C201.118037,297.26131 201.118659,297.262302 201.119157,297.26317 C201.348416,297.797876 201.879953,298.252084 202.744121,298.652711 C203.800105,299.141772 205.379416,299.553189 207.437769,299.875055 C207.541763,300.072267 207.649737,300.567902 207.724498,300.907256 C207.802743,301.267944 207.884345,301.638802 208.000654,302.032731 C208.126168,302.459528 208.451708,302.969551 209.288011,302.969551 C209.604968,302.969551 209.969444,302.898356 210.391514,302.816743 C211.00963,302.695811 211.854889,302.530847 212.909878,302.530847 C213.494781,302.530847 214.100954,302.582197 214.711109,302.683283 C215.887258,302.878511 216.901196,303.592693 218.07436,304.419744 C219.7915,305.630057 221.735162,307 224.704829,307 C224.78581,307 224.867039,306.997395 224.947274,306.991814 C225.045421,306.996403 225.167078,307 225.295453,307 C228.265991,307 230.209156,305.629561 231.92443,304.42024 L231.927167,304.417759 C233.100579,303.5917 234.113398,302.878511 235.289174,302.683283 C235.899079,302.582321 236.505129,302.530847 237.09028,302.530847 C238.098123,302.530847 238.896113,302.658973 239.608644,302.797518 C240.07363,302.888806 240.434996,302.932714 240.712271,302.932714 L240.739389,302.93321 L240.767502,302.93321 C241.379149,302.93321 241.828586,302.598445 242.000126,302.012638 C242.114071,301.627019 242.195425,301.264843 242.27566,300.898078 C242.345569,300.580058 242.457275,300.070283 242.561269,299.870962 C244.620991,299.548476 246.19968,299.137927 247.255789,298.64899 C248.117966,298.250224 248.648881,297.796512 248.879508,297.264038 C248.948672,297.104408 248.9891,296.938948 248.998181,296.770512 C249.030648,296.199092 248.625122,295.694402 248.057759,295.601626 C241.640875,294.547098 238.750074,287.972859 238.630531,287.693537 C238.622819,287.67518 238.614111,287.656947 238.60503,287.63921 C238.277002,286.975138 238.201246,286.426541 238.37913,286.008426 C238.729176,285.185964 240.073506,284.760407 240.962926,284.478852 C241.220422,284.397983 241.463115,284.321083 241.665256,284.241453 C242.540868,283.896642 243.166697,283.522559 243.579561,283.097746 C244.072661,282.59132 244.168693,282.106103 244.162722,281.788579 C244.147671,281.020319 243.558663,280.337642 242.621725,280.003374 C242.305265,279.872891 241.944397,279.804053 241.576936,279.804053 C241.326779,279.804053 240.956333,279.838286 240.605665,280.001513 C239.854945,280.351782 239.182469,280.543289 238.605155,280.570576 C238.298149,280.555072 238.082823,280.488714 237.943376,280.425334 C237.960916,280.12567 237.980322,279.81782 238.000349,279.496823 L238.008684,279.359395 C238.214307,276.110974 238.469814,272.068246 237.396663,269.668209 C236.661119,268.024401 235.673428,266.610675 234.460458,265.464487 C233.443161,264.503976 232.261414,263.725422 230.947312,263.149909 C228.660446,262.14946 226.528575,262 225.46152,262"
          id="Snapchat"/>
      </g>
    </g>
  </symbol>

  <symbol id="stackoverflow" viewBox="-5 0 48 48">
    <g id="Icons" stroke="none" stroke-width="1" fill="none" fill-rule="evenodd">
      <g id="Color-" transform="translate(-807.000000, -952.000000)">
        <g id="stackoverflow" transform="translate(807.000000, 952.000000)">
          <path
            d="M25.0860128,41.5922927 L5.97459514,41.6011499 L5.97294973,37.5538824 L25.0835447,37.5440929 L25.0860128,41.5922927 L25.0860128,41.5922927 Z M38,18.6708298 L34.7306912,0 L30.7087256,0.692025863 L33.9775643,19.3628557 L38,18.6708298 L38,18.6708298 Z M25.5455518,32.3547147 L6.51569942,30.616026 L6.14101644,34.6470941 L25.1712214,36.3841513 L25.5455518,32.3547147 L25.5455518,32.3547147 Z M26.8009984,27.0731519 L8.34598112,22.1539179 L7.28563299,26.0621508 L25.7419431,30.9819676 L26.8009984,27.0731519 L26.8009984,27.0731519 Z M29.2103463,22.4436411 L12.7494464,12.8164635 L10.6748215,16.3015328 L27.1365441,25.9292931 L29.2103463,22.4436411 L29.2103463,22.4436411 Z M33.2466504,19.6088756 L22.4792159,3.95170309 L19.106599,6.23184556 L29.8745036,21.8883189 L33.2466504,19.6088756 L33.2466504,19.6088756 Z"
            fill="#FF810F"/>
          <polygon id="stackoverflow-icon-path" fill="#BEBCBC"
                   points="28.3315807 28.2784283 28.3315807 44.8243495 3.2648427 44.8243495 3.2648427 28.2784283 0 28.2784283 0 48 31.5799693 48 31.5799693 28.2784283"/>
        </g>
      </g>
    </g>
  </symbol>
  <symbol id="stackoverflow0" viewBox="0 0 24 24">
    <path d="M17 20v-5h2v6.988H3V15h1.98v5H17Z"></path>
    <path
      d="m6.84 14.522 8.73 1.825.369-1.755-8.73-1.825-.369 1.755Zm1.155-4.323 8.083 3.764.739-1.617-8.083-3.787-.739 1.64Zm3.372-5.481L10.235 6.08l6.859 5.704 1.132-1.362-6.859-5.704ZM15.57 17H6.655v2h8.915v-2ZM12.861 3.111l6.193 6.415 1.414-1.415-6.43-6.177-1.177 1.177Z"></path>
  </symbol>

  <symbol id="telegram" viewBox="0 0 32 32">
    <circle cx="16" cy="16" r="14" fill="url(#paint0_linear_87_7225)"/>
    <path
      d="M22.9866 10.2088C23.1112 9.40332 22.3454 8.76755 21.6292 9.082L7.36482 15.3448C6.85123 15.5703 6.8888 16.3483 7.42147 16.5179L10.3631 17.4547C10.9246 17.6335 11.5325 17.541 12.0228 17.2023L18.655 12.6203C18.855 12.4821 19.073 12.7665 18.9021 12.9426L14.1281 17.8646C13.665 18.3421 13.7569 19.1512 14.314 19.5005L19.659 22.8523C20.2585 23.2282 21.0297 22.8506 21.1418 22.1261L22.9866 10.2088Z"
      fill="white"/>
    <defs>
      <linearGradient id="paint0_linear_87_7225" x1="16" y1="2" x2="16" y2="30" gradientUnits="userSpaceOnUse">
        <stop stop-color="#37BBFE"/>
        <stop offset="1" stop-color="#007DBB"/>
      </linearGradient>
    </defs>
  </symbol>

  <symbol id="tinder" viewBox="-6 0 48 48">
    <g id="Icons" stroke="none" stroke-width="1" fill="none" fill-rule="evenodd">
      <g id="Color-" transform="translate(-306.000000, -660.000000)" fill="#E34514">
        <path
          d="M325.259514,660 C325.678689,660.323506 326.042385,660.721667 326.443067,661.070058 C330.061534,664.516639 333.377948,668.324053 336.047107,672.573177 C338.629964,676.685433 340.614943,681.233178 341.496382,686.035995 C341.983303,688.66759 342.143637,691.367557 341.860016,694.030321 C341.730627,695.143927 341.539532,696.257534 341.188165,697.32137 C340.695018,698.864244 340.047762,700.363569 339.160097,701.719804 C338.39572,702.889402 337.440247,703.934575 336.33683,704.780667 C335.122456,705.707635 333.73548,706.385753 332.293024,706.852348 C330.49914,707.430926 328.619017,707.717104 326.74512,707.872636 C324.507403,708.040548 322.25742,708.071654 320.025991,707.785538 C317.498612,707.468253 314.989726,706.790136 312.739743,705.564546 C310.656196,704.432276 308.825388,702.77126 307.647999,700.680853 C306.28568,698.291887 305.835683,695.461212 306.051435,692.730076 C306.273351,689.837188 307.185674,687.031397 308.393884,684.412245 C309.441821,682.160147 310.724004,680.026253 312.147904,677.99812 C313.362279,676.281051 314.669119,674.632416 316.099307,673.089542 C316.123903,673.070878 316.173279,673.027329 316.204101,673.008666 C316.179443,674.30891 316.30273,675.615376 316.672591,676.86585 C317.048615,678.141209 317.683542,679.341913 318.528056,680.368422 C318.577433,680.430635 318.614357,680.517733 318.706822,680.530237 C320.537631,679.142895 322.26981,677.587579 323.6198,675.714978 C325.019105,673.780102 325.956023,671.515562 326.313616,669.14526 C326.788208,666.078176 326.381424,662.886667 325.259514,660 L325.259514,660 Z"
          id="Tinder">

        </path>
      </g>
    </g>
  </symbol>

  <symbol id="twitter" viewBox="0 0 32 32">
    <path
      d="M11.7887 28C8.55374 28 5.53817 27.0591 3 25.4356C5.15499 25.5751 8.95807 25.2411 11.3236 22.9848C7.76508 22.8215 6.16026 20.0923 5.95094 18.926C6.25329 19.0426 7.6953 19.1826 8.50934 18.856C4.4159 17.8296 3.78793 14.2373 3.92748 13.141C4.695 13.6775 5.99745 13.8641 6.50913 13.8174C2.69479 11.0882 4.06703 6.98276 4.74151 6.09635C7.47882 9.88867 11.5812 12.0186 16.6564 12.137C16.5607 11.7174 16.5102 11.2804 16.5102 10.8316C16.5102 7.61092 19.1134 5 22.3247 5C24.0025 5 25.5144 5.71275 26.5757 6.85284C27.6969 6.59011 29.3843 5.97507 30.2092 5.4432C29.7934 6.93611 28.4989 8.18149 27.7159 8.64308C27.7224 8.65878 27.7095 8.62731 27.7159 8.64308C28.4037 8.53904 30.2648 8.18137 31 7.68256C30.6364 8.52125 29.264 9.91573 28.1377 10.6964C28.3473 19.9381 21.2765 28 11.7887 28Z"
      fill="#47ACDF"/>
  </symbol>

  <symbol id="whatsapp" viewBox="0 0 32 32">
    <path fill-rule="evenodd" clip-rule="evenodd"
          d="M16 31C23.732 31 30 24.732 30 17C30 9.26801 23.732 3 16 3C8.26801 3 2 9.26801 2 17C2 19.5109 2.661 21.8674 3.81847 23.905L2 31L9.31486 29.3038C11.3014 30.3854 13.5789 31 16 31ZM16 28.8462C22.5425 28.8462 27.8462 23.5425 27.8462 17C27.8462 10.4576 22.5425 5.15385 16 5.15385C9.45755 5.15385 4.15385 10.4576 4.15385 17C4.15385 19.5261 4.9445 21.8675 6.29184 23.7902L5.23077 27.7692L9.27993 26.7569C11.1894 28.0746 13.5046 28.8462 16 28.8462Z"
          fill="#BFC8D0"/>
    <path
      d="M28 16C28 22.6274 22.6274 28 16 28C13.4722 28 11.1269 27.2184 9.19266 25.8837L5.09091 26.9091L6.16576 22.8784C4.80092 20.9307 4 18.5589 4 16C4 9.37258 9.37258 4 16 4C22.6274 4 28 9.37258 28 16Z"
      fill="url(#paint0_linear_87_7264)"/>
    <path fill-rule="evenodd" clip-rule="evenodd"
          d="M16 30C23.732 30 30 23.732 30 16C30 8.26801 23.732 2 16 2C8.26801 2 2 8.26801 2 16C2 18.5109 2.661 20.8674 3.81847 22.905L2 30L9.31486 28.3038C11.3014 29.3854 13.5789 30 16 30ZM16 27.8462C22.5425 27.8462 27.8462 22.5425 27.8462 16C27.8462 9.45755 22.5425 4.15385 16 4.15385C9.45755 4.15385 4.15385 9.45755 4.15385 16C4.15385 18.5261 4.9445 20.8675 6.29184 22.7902L5.23077 26.7692L9.27993 25.7569C11.1894 27.0746 13.5046 27.8462 16 27.8462Z"
          fill="white"/>
    <path
      d="M12.5 9.49989C12.1672 8.83131 11.6565 8.8905 11.1407 8.8905C10.2188 8.8905 8.78125 9.99478 8.78125 12.05C8.78125 13.7343 9.52345 15.578 12.0244 18.3361C14.438 20.9979 17.6094 22.3748 20.2422 22.3279C22.875 22.2811 23.4167 20.0154 23.4167 19.2503C23.4167 18.9112 23.2062 18.742 23.0613 18.696C22.1641 18.2654 20.5093 17.4631 20.1328 17.3124C19.7563 17.1617 19.5597 17.3656 19.4375 17.4765C19.0961 17.8018 18.4193 18.7608 18.1875 18.9765C17.9558 19.1922 17.6103 19.083 17.4665 19.0015C16.9374 18.7892 15.5029 18.1511 14.3595 17.0426C12.9453 15.6718 12.8623 15.2001 12.5959 14.7803C12.3828 14.4444 12.5392 14.2384 12.6172 14.1483C12.9219 13.7968 13.3426 13.254 13.5313 12.9843C13.7199 12.7145 13.5702 12.305 13.4803 12.05C13.0938 10.953 12.7663 10.0347 12.5 9.49989Z"
      fill="white"/>
    <defs>
      <linearGradient id="paint0_linear_87_7264" x1="26.5" y1="7" x2="4" y2="28" gradientUnits="userSpaceOnUse">
        <stop stop-color="#5BD066"/>
        <stop offset="1" stop-color="#27B43E"/>
      </linearGradient>
    </defs>
  </symbol>

  <symbol id="website" viewBox="0 0 16 16">
    <path
      fill="currentColor"
      d="M7.05025 1.53553C8.03344 0.552348 9.36692 0 10.7574 0C13.6528 0 16 2.34721 16 5.24264C16 6.63308 15.4477 7.96656 14.4645 8.94975L12.4142 11L11 9.58579L13.0503 7.53553C13.6584 6.92742 14 6.10264 14 5.24264C14 3.45178 12.5482 2 10.7574 2C9.89736 2 9.07258 2.34163 8.46447 2.94975L6.41421 5L5 3.58579L7.05025 1.53553Z"
    />
    <path
      fill="currentColor"
      d="M7.53553 13.0503L9.58579 11L11 12.4142L8.94975 14.4645C7.96656 15.4477 6.63308 16 5.24264 16C2.34721 16 0 13.6528 0 10.7574C0 9.36693 0.552347 8.03344 1.53553 7.05025L3.58579 5L5 6.41421L2.94975 8.46447C2.34163 9.07258 2 9.89736 2 10.7574C2 12.5482 3.45178 14 5.24264 14C6.10264 14 6.92742 13.6584 7.53553 13.0503Z"
    />
    <path
      fill="currentColor"
      d="M5.70711 11.7071L11.7071 5.70711L10.2929 4.29289L4.29289 10.2929L5.70711 11.7071Z"
    />
  </symbol>
  <symbol id="website0" viewBox="0 0 512 512">
    <path
      fill="currentColor"
      d="M256,0C114.615,0,0,114.615,0,256s114.615,256,256,256s256-114.615,256-256S397.385,0,256,0z M418.275,146h-46.667  c-5.365-22.513-12.324-43.213-20.587-61.514c15.786,8.776,30.449,19.797,43.572,32.921C403.463,126.277,411.367,135.854,418.275,146  z M452,256c0,17.108-2.191,33.877-6.414,50h-64.034c1.601-16.172,2.448-32.887,2.448-50s-0.847-33.828-2.448-50h64.034  C449.809,222.123,452,238.892,452,256z M256,452c-5.2,0-21.048-10.221-36.844-41.813c-6.543-13.087-12.158-27.994-16.752-44.187  h107.191c-4.594,16.192-10.208,31.1-16.752,44.187C277.048,441.779,261.2,452,256,452z M190.813,306  c-1.847-16.247-2.813-33.029-2.813-50s0.966-33.753,2.813-50h130.374c1.847,16.247,2.813,33.029,2.813,50s-0.966,33.753-2.813,50  H190.813z M60,256c0-17.108,2.191-33.877,6.414-50h64.034c-1.601,16.172-2.448,32.887-2.448,50s0.847,33.828,2.448,50H66.414  C62.191,289.877,60,273.108,60,256z M256,60c5.2,0,21.048,10.221,36.844,41.813c6.543,13.087,12.158,27.994,16.752,44.187H202.404  c4.594-16.192,10.208-31.1,16.752-44.187C234.952,70.221,250.8,60,256,60z M160.979,84.486c-8.264,18.301-15.222,39-20.587,61.514  H93.725c6.909-10.146,14.812-19.723,23.682-28.593C130.531,104.283,145.193,93.262,160.979,84.486z M93.725,366h46.667  c5.365,22.513,12.324,43.213,20.587,61.514c-15.786-8.776-30.449-19.797-43.572-32.921C108.537,385.723,100.633,376.146,93.725,366z   M351.021,427.514c8.264-18.301,15.222-39,20.587-61.514h46.667c-6.909,10.146-14.812,19.723-23.682,28.593  C381.469,407.717,366.807,418.738,351.021,427.514z"/>
  </symbol>

  <symbol id="wordpress" viewBox="0 0 32 32">
    <circle cx="16" cy="16" r="14" fill="#028CB0"/>
    <path
      d="M6.45538 16C6.45538 19.7823 8.65538 23.04 11.8369 24.5885L7.28462 12.1162C6.73798 13.338 6.45541 14.6615 6.45538 16ZM16 25.5446C17.1085 25.5446 18.1746 25.35 19.1731 25.0031L19.1054 24.8762L16.1692 16.8377L13.3092 25.1554C14.1554 25.4092 15.0608 25.5446 16 25.5446ZM17.3115 11.5238L20.7638 21.7877L21.72 18.6062C22.1262 17.2862 22.4392 16.3385 22.4392 15.5177C22.4392 14.3331 22.0162 13.5208 21.6608 12.8946C21.17 12.0992 20.7215 11.4308 20.7215 10.6523C20.7215 9.77231 21.3815 8.96 22.3292 8.96H22.4477C20.689 7.34546 18.3874 6.45141 16 6.45538C14.4192 6.45509 12.8632 6.84777 11.4718 7.59809C10.0805 8.34842 8.89746 9.43285 8.02923 10.7538L8.63846 10.7708C9.63692 10.7708 11.1769 10.6438 11.1769 10.6438C11.7015 10.6185 11.7608 11.3715 11.2446 11.4308C11.2446 11.4308 10.7285 11.4985 10.1446 11.5238L13.6308 21.8638L15.7208 15.6023L14.2315 11.5238C13.898 11.5054 13.565 11.4772 13.2331 11.4392C12.7169 11.4054 12.7762 10.6185 13.2923 10.6438C13.2923 10.6438 14.8662 10.7708 15.8054 10.7708C16.8038 10.7708 18.3438 10.6438 18.3438 10.6438C18.86 10.6185 18.9277 11.3715 18.4115 11.4308C18.4115 11.4308 17.8954 11.49 17.3115 11.5238ZM20.7977 24.25C22.2416 23.4104 23.4399 22.2066 24.2729 20.7589C25.1059 19.3112 25.5444 17.6703 25.5446 16C25.5446 14.3415 25.1215 12.7846 24.3769 11.4223C24.5281 12.9211 24.3012 14.4339 23.7169 15.8223L20.7977 24.25ZM16 27C13.0826 27 10.2847 25.8411 8.22183 23.7782C6.15893 21.7153 5 18.9174 5 16C5 13.0826 6.15893 10.2847 8.22183 8.22183C10.2847 6.15893 13.0826 5 16 5C18.9174 5 21.7153 6.15893 23.7782 8.22183C25.8411 10.2847 27 13.0826 27 16C27 18.9174 25.8411 21.7153 23.7782 23.7782C21.7153 25.8411 18.9174 27 16 27Z"
      fill="white"/>
  </symbol>

  <symbol id="youtube" viewBox="0 0 236.777 236.777">
    <path style="fill:#FF1D25;" d="M205.664,39.868c36.805,11.184,31.443,45.56,29.976,80.073c-0.779,18.334,1.971,46.889-6.05,63.939
		c-5.133,10.863-15.446,11.275-26.034,11.734c-52.022,2.429-104.916,4.584-156.892,2.2c-29.426-1.375-49.272-10.221-45.651-39.051
		c-2.338-27.776-0.275-57.156,2.613-84.427c1.513-14.209,4.583-28.463,19.801-33.138c10.725-3.346,24.476,0.092,35.659-0.367
		c14.438-0.55,28.738-2.567,43.222-2.75c33.276-0.458,66.552,0.229,99.828,0.413C203.693,38.493,204.793,39.089,205.664,39.868z
		 M155.063,111.966c-12.925-7.104-25.942-14.071-39.143-20.626c-8.434-4.217-16.913-8.388-25.53-12.329
		c-0.367-0.183-1.742-0.642-3.254-1.192c3.713,24.796,0.458,52.114-0.596,77.506C110.053,141.85,132.695,127.183,155.063,111.966z"
    />
  </symbol>

  <symbol id="zoom" viewBox="0 0 32 32">
    <path
      d="M2 11.6C2 8.23969 2 6.55953 2.65396 5.27606C3.2292 4.14708 4.14708 3.2292 5.27606 2.65396C6.55953 2 8.23969 2 11.6 2H20.4C23.7603 2 25.4405 2 26.7239 2.65396C27.8529 3.2292 28.7708 4.14708 29.346 5.27606C30 6.55953 30 8.23969 30 11.6V20.4C30 23.7603 30 25.4405 29.346 26.7239C28.7708 27.8529 27.8529 28.7708 26.7239 29.346C25.4405 30 23.7603 30 20.4 30H11.6C8.23969 30 6.55953 30 5.27606 29.346C4.14708 28.7708 3.2292 27.8529 2.65396 26.7239C2 25.4405 2 23.7603 2 20.4V11.6Z"
      fill="#4087FC"/>
    <path
      d="M8.26667 10C7.56711 10 7 10.6396 7 11.4286V18.3571C7 20.369 8.44612 22 10.23 22L17.7333 21.9286C18.4329 21.9286 19 21.289 19 20.5V13.5C19 11.4881 17.2839 10 15.5 10L8.26667 10Z"
      fill="white"/>
    <path
      d="M20.7122 12.7276C20.2596 13.1752 20 13.8211 20 14.5V17.3993C20 18.0782 20.2596 18.7242 20.7122 19.1717L23.5288 21.6525C24.1019 22.2191 25 21.7601 25 20.9005V11.1352C25 10.2755 24.1019 9.81654 23.5288 10.3832L20.7122 12.7276Z"
      fill="white"/>
  </symbol>
</svg>
