<svg viewBox="0 0 640 200" xmlns="http://www.w3.org/2000/svg">
  <defs>
    <clipPath id="frame-wm">
      <rect x="8" y="8" width="184" height="184" rx="36" />
    </clipPath>
  </defs>

  <rect x="8" y="8" width="184" height="184" rx="36" fill="#161a22" stroke="#272d39" stroke-width="2" />

  <g clip-path="url(#frame-wm)">
    <path
      d="M14,14 L100,14 L84,34 L112,54 L84,74 L112,94 L84,114 L112,134 L84,154 L100,186 L14,186 Z"
      fill="#5eead4"
    />
    <path
      d="M186,14 L100,14 L84,34 L112,54 L84,74 L112,94 L84,114 L112,134 L84,154 L100,186 L186,186 Z"
      fill="#2d3f3c"
      stroke="#5eead4"
      stroke-width="2.5"
      stroke-linejoin="round"
      transform="translate(9,9)"
    />
  </g>

  <text
    x="232"
    y="122"
    font-family="'IBM Plex Mono', ui-monospace, SFMono-Regular, Menlo, monospace"
    font-size="72"
    font-weight="700"
    letter-spacing="-1"
    fill="#e7e9ee"
  >cleave</text>
  <rect x="235" y="140" width="10" height="10" rx="1" fill="#5eead4" />
</svg>
